<svg width="872" height="872" viewBox="0 0 872 872" fill="none" xmlns="http://www.w3.org/2000/svg">
<g filter="url(#filter0_d)">
<mask id="mask0" mask-type="alpha" maskUnits="userSpaceOnUse" x="4" y="0" width="864" height="864">
<circle cx="436" cy="432" r="432" fill="#C4C4C4"/>
</mask>
<g mask="url(#mask0)">
<circle cx="436" cy="432" r="432" fill="white"/>
<path d="M866.711 138.009L868.538 139.835L866.711 138.009Z" fill="#829A9C"/>
<path d="M799.123 176.369L800.95 178.196L799.123 176.369Z" fill="#768B8C"/>
<path d="M766.242 194.636L768.069 196.463L766.242 194.636Z" fill="#839A9D"/>
<path d="M711.441 359.04L713.268 360.866L711.441 359.04Z" fill="#818080"/>
<path d="M715.703 365.738L716.312 366.953L715.703 365.738Z" fill="#A7A6A6"/>
<path d="M727.881 388.267L729.708 390.094L727.881 388.267Z" fill="#7A7978"/>
<path d="M729.708 391.92L731.535 393.747L729.708 391.92Z" fill="#787776"/>
<path d="M731.534 395.574L733.361 397.4L731.534 395.574Z" fill="#929191"/>
<path d="M749.802 428.454L751.628 430.281L749.802 428.454Z" fill="#838283"/>
<path d="M779.029 432.108L780.856 433.935L779.029 432.108Z" fill="#768A8C"/>
<path d="M763.807 440.023L765.022 440.632L763.807 440.023Z" fill="#92AEB0"/>
<path d="M757.108 441.241V443.068H762.589L757.108 441.241Z" fill="#5B6969"/>
<path d="M-194.604 64.9402V242.13C-194.604 261.154 -201.353 296.243 -192.196 313.18C-188.105 320.748 -178.164 322.975 -170.857 326.285C-152.064 334.799 -132.886 342.387 -114.229 351.15C-70.2109 371.826 -25.2428 390.384 19.1205 410.237C50.2713 424.178 82.8177 443.852 115.936 452.201L180.415 326.159L210.924 264.051C138.808 221.96 62.3257 185.309 -11.9334 147.091C-50.4051 127.291 -90.9044 97.0153 -132.496 85.0339L-123.362 64.9402H-194.604Z" fill="#002D40"/>
<path d="M655.727 272.271C671.683 318.982 697.545 350.58 721.488 393.747C728.02 405.524 718.565 438.468 730.621 444.895C736.536 448.046 771.976 436.886 777.202 434.4C794.288 426.279 811.243 417.867 828.35 409.787C886.304 382.412 944.189 354.825 1001.89 326.908C1015.86 320.147 1029.65 312.627 1043.9 306.482C1050.69 303.555 1061.01 301.184 1065.03 294.392C1073.94 279.337 1067.65 246.491 1067.65 229.344V64.9402L998.234 66.1257L959.873 86.5757L873.104 152.622L655.727 272.271Z" fill="#3B7831"/>
<path d="M9.98633 158.102L11.813 159.929L9.98633 158.102Z" fill="#719DA8"/>
<path d="M66.0059 187.938L67.2211 188.547L66.0059 187.938Z" fill="#8CB7C1"/>
<path d="M79.4014 194.636L81.2281 196.463L79.4014 194.636Z" fill="#6D99A4"/>
<path d="M162.822 239.085L164.037 239.695L162.822 239.085Z" fill="#90BCC5"/>
<path d="M682.214 242.13L684.041 243.957L682.214 242.13Z" fill="#7D9395"/>
<path d="M173.782 244.565L174.997 245.175L173.782 244.565Z" fill="#99C4CD"/>
<path d="M659.075 263.443L659.684 264.658L659.075 263.443Z" fill="#99B7BA"/>
<path d="M211.532 265.27L212.142 266.485L211.532 265.27Z" fill="#95C1CA"/>
<path d="M662.12 269.531L663.947 271.358L662.12 269.531Z" fill="#848383"/>
<path d="M621.933 285.971L651.322 337.119L720.575 452.201C727.491 450.563 743.018 444.453 742.831 435.662C742.535 421.803 725.75 400.447 719.168 388.267C698.194 349.446 675.996 311.015 656.64 271.358L621.933 285.971Z" fill="white"/>
<path d="M663.946 273.185L665.773 275.011L663.946 273.185Z" fill="#838282"/>
<path d="M205.444 275.011L207.271 276.838L205.444 275.011Z" fill="#6C858F"/>
<path d="M123.242 446.721H126.896L183.169 337.119L212.751 276.838C199.471 277.443 192.847 301.129 187.33 311.545C170.66 343.023 155.056 375.074 138.4 406.534C132.281 418.093 119.994 433.386 123.242 446.721Z" fill="#E9E8E8"/>
<path d="M212.751 278.665L161.059 379.133L126.896 448.548L152.469 461.335L247.458 293.278L212.751 278.665Z" fill="white"/>
<path d="M201.79 282.318L203.617 284.145L201.79 282.318Z" fill="#718790"/>
<path d="M671.253 285.971L673.08 287.798L671.253 285.971Z" fill="#868585"/>
<path d="M353.407 297.706C324.561 301.495 295.926 304.494 267.552 311.538C259.211 313.609 249.951 313.317 242.316 317.745C231.785 323.853 223.59 343.076 217.672 353.587C200.513 384.063 177.139 416.153 164.336 448.548C160.364 458.597 170.835 467.169 176.5 474.286C193.329 495.43 212.301 516.019 232.844 533.621C238.708 538.645 249.979 551.985 258.418 550.989C270.927 549.513 285.853 528.744 294.952 520.841C329.256 491.044 362.177 459.258 395.421 428.29C404.598 419.743 420.827 396.732 433.782 394.892C440.413 393.951 448.291 402.995 453.875 405.934C460.981 409.674 472.709 409.431 478.348 415.17C483.34 420.252 481.101 431.035 482.498 437.588C485.227 450.376 491.688 464.097 500.144 474.094C512.745 488.995 536.36 502.726 554.264 488.016C577.114 469.241 553.16 432.104 548.252 410.187C545.295 396.982 546.973 382.251 540.867 370C507.098 302.245 421.373 288.783 353.407 297.706Z" fill="#F2C891"/>
<path d="M680.387 302.412L682.214 304.239L680.387 302.412Z" fill="#7C7B7A"/>
<path d="M623.759 306.065C639.659 342.964 667.034 375.012 686.287 410.187C691.99 420.605 700.05 442.474 713.268 443.068C710.953 430.243 701.904 419.509 695.512 408.36C681.386 383.722 666.161 359.514 651.322 335.292C645.126 325.178 637.286 304.905 623.759 306.065Z" fill="#E0CCB1"/>
<path d="M484.93 311.545C497.789 332.774 523.879 344.446 537.735 366.347C546.337 379.946 544.75 394.976 547.86 410.187C550.473 422.962 556.769 434.274 560.218 446.721C566.369 468.925 557.44 503.393 526.945 492.444C505.472 484.733 490.188 462.318 483.907 441.241C481.778 434.093 483.842 420.879 479.399 415.171C474.885 409.367 462.153 409.329 455.703 405.935C449.512 402.676 441.133 392.702 433.783 393.603C420.936 395.176 404.356 418.011 395.422 426.557C364.898 455.744 332.824 483.323 302.258 512.483C284.402 529.519 266.48 545.975 249.258 563.631C241.568 571.516 230.894 579.302 229.565 591.031C227.72 607.28 241.897 629.991 260.246 626.518C275.976 623.543 300.108 600.93 307.74 587.378L315.047 589.204V591.031C301.076 597.545 277.855 617.511 273.818 633.045C267.723 656.493 292.842 677.723 315.04 672.679C328.389 669.645 338.948 654.217 347.928 644.952C361.379 631.071 377.529 619.002 391.769 605.807C399.2 598.921 408.843 586.932 419.169 585.551C400.246 604.317 379.913 621.738 360.722 640.281C352.136 648.576 340.82 656.781 335.46 667.753C322.949 693.369 356.438 710.6 377.155 701.267C412.208 685.477 430.1 638.284 464.837 622.085C456.975 637.809 433.637 654.549 420.996 665.926C416.451 670.018 404.996 681.046 402.729 687.846C396.467 706.632 416.718 726.772 435.609 718.9C442.293 716.115 460.931 702.188 464.837 696.98C468.499 692.095 460.485 685.755 459.357 682.366C454.711 668.429 470.812 649.61 484.93 653.139C490.65 654.569 494.194 660.044 499.544 662.273C505.152 664.609 504.867 659.494 508.678 660.446C506.621 652.512 500.149 646.508 498.556 638.525C495.673 624.076 512.05 604.2 526.945 605.153C539.792 605.977 546.494 617.88 559.825 612.952C557.611 604.819 550.898 599.116 548.763 591.031C544.848 576.202 561.071 556.516 576.266 557.263C589.06 557.891 595.932 570.095 609.146 567.284C607.08 559.318 600.727 553.35 598.979 545.363C595.91 531.34 611.528 512.662 625.587 511.964C634.863 511.504 644.214 522.871 652.916 519.496C658.873 517.185 663.443 509.739 667.601 505.176C681.557 489.859 698.903 468.364 705.697 448.548C707.934 442.021 702.506 435.485 699.238 430.281C690.559 416.468 682.653 402.207 674.177 388.267C662.663 369.33 651.109 350.489 639.426 331.639C635.489 325.288 630.988 313.836 624.472 309.841C615.859 304.562 591.69 310.289 581.746 311.235C550.025 314.254 516.801 311.545 484.93 311.545Z" fill="#FFD7B7"/>
<path d="M497.717 309.719V311.545H587.225C564.114 301.847 522.903 309.719 497.717 309.719Z" fill="#E9E7D7"/>
<path d="M159.776 452.201C172.576 444.054 178.577 425.274 185.385 412.325C200.415 383.737 218.843 337.709 243.805 317.025C231.151 312.152 223.048 335.769 217.866 344.426C203.875 367.793 190.598 391.794 177.484 415.667C171.045 427.393 162.157 438.854 159.776 452.201Z" fill="#C9B69F"/>
<path d="M180.479 325.551L181.088 326.766L180.479 325.551Z" fill="#B2BABF"/>
<path d="M693.174 326.159L695.001 327.985L693.174 326.159Z" fill="#898988"/>
<path d="M174.39 335.292L176.217 337.119L174.39 335.292Z" fill="#667E87"/>
<path d="M20.9745 347.827C-1.39717 356.849 10.6372 393.951 33.7267 384.595C56.6792 375.293 43.7169 338.655 20.9745 347.827Z" fill="#1A4253"/>
<path d="M168.91 346.252L170.737 348.079L168.91 346.252Z" fill="#85979F"/>
<path d="M156.731 371.218L157.341 372.433L156.731 371.218Z" fill="#B3BBC0"/>
<path d="M75.7755 375.531C53.1025 387.223 71.8061 421.66 93.9348 409.86C114.697 398.787 97.1681 364.497 75.7755 375.531Z" fill="#1A4253"/>
<path d="M147.598 389.485L148.207 390.7L147.598 389.485Z" fill="#BCC4C7"/>
<path d="M145.163 391.92L146.99 393.747L145.163 391.92Z" fill="#70848D"/>
<path d="M141.509 399.227L143.336 401.054L141.509 399.227Z" fill="#748991"/>
<path d="M16.6851 408.969L17.9003 409.578L16.6851 408.969Z" fill="#356171"/>
<path d="M20.3384 410.795L21.5537 411.405L20.3384 410.795Z" fill="#457180"/>
<path d="M33.1255 416.275L34.3407 416.885L33.1255 416.275Z" fill="#467280"/>
<path d="M73.3125 434.543L74.5278 435.152L73.3125 434.543Z" fill="#4B7886"/>
<path d="M86.0996 440.023L87.3149 440.632L86.0996 440.023Z" fill="#4F7B89"/>
<path d="M92.188 443.068V444.895H97.6681L92.188 443.068Z" fill="#6995A1"/>
<path d="M98.8867 445.503L100.102 446.112L98.8867 445.503Z" fill="#3D6978"/>
<path d="M102.54 447.33L103.755 447.939L102.54 447.33Z" fill="#426E7D"/>
<path d="M110.456 450.375L112.282 452.201L110.456 450.375Z" fill="#6A96A2"/>
<path d="M621.932 511.895C579.991 521.98 603.314 587.319 640.199 579.344C685.025 569.649 662.271 502.195 621.932 511.895ZM311.393 587.378C327.619 582.833 355.416 558.771 362.54 543.537C345.304 548.376 321.668 572.912 311.393 587.378ZM570.785 557.325C523.254 567.633 562.06 640.127 598.185 632.318C650.767 620.951 611.191 548.56 570.785 557.325ZM369.847 625.738C384.645 625.959 410.725 597.435 419.168 585.551C403.429 586.249 379.2 613.509 369.847 625.738ZM521.464 605.056C474.881 616.258 509.239 686.206 547.037 677.986C597.253 667.066 561.547 595.419 521.464 605.056ZM428.302 654.966L430.128 656.792C442.342 648.19 458.455 635.765 464.836 622.085C450.562 626.091 436.646 643.119 428.302 654.966ZM475.796 654.191C440.148 663.993 469.642 721.443 499.543 712.109C540.611 699.289 508.72 645.14 475.796 654.191Z" fill="#F2C891"/>
</g>
</g>
<defs>
<filter id="filter0_d" x="0" y="0" width="872" height="872" filterUnits="userSpaceOnUse" color-interpolation-filters="sRGB">
<feFlood flood-opacity="0" result="BackgroundImageFix"/>
<feColorMatrix in="SourceAlpha" type="matrix" values="0 0 0 0 0 0 0 0 0 0 0 0 0 0 0 0 0 0 127 0"/>
<feOffset dy="4"/>
<feGaussianBlur stdDeviation="2"/>
<feColorMatrix type="matrix" values="0 0 0 0 0 0 0 0 0 0 0 0 0 0 0 0 0 0 0.25 0"/>
<feBlend mode="normal" in2="BackgroundImageFix" result="effect1_dropShadow"/>
<feBlend mode="normal" in="SourceGraphic" in2="effect1_dropShadow" result="shape"/>
</filter>
</defs>
</svg>
