<svg width="899" height="898" viewBox="0 0 899 898" fill="none" xmlns="http://www.w3.org/2000/svg">
<g filter="url(#filter0_d)">
<circle cx="463" cy="440" r="432" fill="#C4C4C4"/>
</g>
<g filter="url(#filter1_d)">
<mask id="mask0" mask-type="alpha" maskUnits="userSpaceOnUse" x="31" y="8" width="864" height="864">
<circle cx="463" cy="440" r="432" fill="#C4C4C4"/>
</mask>
<g mask="url(#mask0)">
<circle cx="463" cy="440" r="432" fill="white"/>
<path d="M742.814 863.512L284.444 950.719L265.757 852.496C264.615 846.494 273.994 839.621 286.599 837.223L699.132 758.736C711.737 756.338 722.985 759.287 724.127 765.29L742.814 863.512Z" fill="#558F30"/>
<path d="M781.175 882.188L255.618 982.177L260.522 945.728L763.229 850.086L781.175 882.188Z" fill="#3B7517"/>
<path d="M534.077 869.299L480.722 879.45C473.385 880.846 466.137 875.44 464.614 867.436L462.538 856.523C461.015 848.519 465.772 840.829 473.108 839.433L526.464 829.282C533.8 827.887 541.048 833.293 542.571 841.296L544.647 852.21C546.17 860.213 541.413 867.903 534.077 869.299Z" fill="white"/>
<path d="M507.137 543.205L387.173 566.029L423.039 754.544L543.003 731.72L507.137 543.205Z" fill="#3B7517"/>
<path opacity="0.2" d="M505.997 543.423L471.722 549.944L507.587 738.459L541.863 731.938L505.997 543.423Z" fill="#382673"/>
<path d="M583.104 712.253L377.451 751.379C339.748 758.552 314.769 795.269 321.942 832.972L664.697 767.762C657.524 730.059 620.807 705.08 583.104 712.253Z" fill="#FFDE39"/>
<path d="M583.103 712.253L525.977 723.121C563.68 715.948 600.397 740.927 607.57 778.63L664.696 767.762C657.523 730.059 620.806 705.08 583.103 712.253Z" fill="#FEC632"/>
<path d="M523.329 640.754L406.793 662.926C375.945 668.794 346.028 648.441 340.159 617.593L337.768 605.026L566.271 561.552L568.662 574.12C574.531 604.968 554.177 634.885 523.329 640.754Z" fill="#FFDE39"/>
<path d="M520.572 570.246L522.963 582.814C528.832 613.662 519.904 641.406 489.056 647.275L523.332 640.754C554.18 634.885 574.533 604.967 568.664 574.119L566.273 561.552L520.572 570.246Z" fill="#FEC632"/>
<path d="M687.547 763.414L299.092 837.319C296.7 824.752 305.027 812.513 317.594 810.122L660.349 744.911C672.917 742.52 685.156 750.847 687.547 763.414Z" fill="#3B7517"/>
<path opacity="0.2" d="M660.349 744.911L603.224 755.779C615.791 753.388 628.03 761.715 630.421 774.282L687.547 763.414C685.156 750.846 672.917 742.52 660.349 744.911Z" fill="#382673"/>
<path d="M584.773 534.354L310.569 586.523L317.09 620.798C319.481 633.366 331.72 641.692 344.288 639.301L572.791 595.828C585.359 593.437 593.685 581.198 591.294 568.63L584.773 534.354Z" fill="#3B7517"/>
<path d="M584.773 534.354L310.569 586.523L317.09 620.798C319.481 633.366 331.72 641.692 344.288 639.301L572.791 595.828C585.359 593.437 593.685 581.198 591.294 568.63L584.773 534.354Z" fill="#3B7517"/>
<path opacity="0.2" d="M527.649 545.222L511.319 583.845C522.745 581.672 528.234 604.305 515.667 606.696L572.793 595.827C585.36 593.436 593.687 581.197 591.295 568.63L584.774 534.354L527.649 545.222Z" fill="#382673"/>
<path d="M538.066 164.402L755.144 123.102L757.318 134.527C780.142 254.491 701.504 370.082 581.54 392.905" stroke="#3B7517" stroke-width="10" stroke-miterlimit="10" stroke-linecap="round" stroke-linejoin="round"/>
<path d="M218.162 225.265L1.08398 266.565L3.25766 277.99C26.0813 397.954 141.671 476.592 261.636 453.768" stroke="#3B7517" stroke-width="10" stroke-miterlimit="10" stroke-linecap="round" stroke-linejoin="round"/>
<path d="M551.306 576.238L357.079 613.19C283.958 627.102 214.604 579.919 200.692 506.798L132.221 146.906L589.227 59.9587L657.698 419.851C671.61 492.972 624.427 562.326 551.306 576.238Z" fill="#FFDE39"/>
<path opacity="0.3" d="M207.294 168.139C207.294 168.139 244.247 362.367 250.768 396.642" stroke="white" stroke-width="2" stroke-miterlimit="10" stroke-linecap="round" stroke-linejoin="round"/>
<path d="M532.102 70.827L600.573 430.719C614.485 503.84 567.302 573.195 494.181 587.106L551.307 576.238C624.428 562.326 671.61 492.972 657.699 419.851L589.228 59.9586L532.102 70.827Z" fill="#FEC632"/>
<path d="M623.503 53.4377L97.9458 153.427L138.742 181.181L595.749 94.2342L623.503 53.4377Z" fill="#3B7517"/>
<path opacity="0.2" d="M554.952 66.4797L538.623 105.102L595.748 94.2341L623.503 53.4376L554.952 66.4797Z" fill="#382673"/>
<path d="M626.234 5.5633L77.8269 109.9C65.2592 112.291 56.9329 124.53 59.3239 137.098C61.715 149.665 73.9539 157.992 86.5216 155.601L634.929 51.2639C647.497 48.8729 655.823 36.6339 653.432 24.0662C651.041 11.4986 638.802 3.17225 626.234 5.5633Z" fill="#FFDE39"/>
<path d="M626.234 5.56302L557.683 18.6051C570.251 16.2141 582.49 24.5404 584.881 37.1081C587.272 49.6757 578.945 61.9147 566.378 64.3057L634.929 51.2636C647.496 48.8726 655.823 36.6336 653.432 24.066C651.041 11.4983 638.802 3.17197 626.234 5.56302Z" fill="#FEC632"/>
<path opacity="0.3" d="M260.332 446.912L265.331 473.19" stroke="white" stroke-width="2" stroke-miterlimit="10" stroke-linecap="round" stroke-linejoin="round"/>
<circle cx="400.812" cy="314.144" r="118.5" transform="rotate(-10.772 400.812 314.144)" fill="white"/>
<g clip-path="url(#clip0)">
<path d="M399.886 250.983L382.25 254.338C379.048 254.948 377.024 258.452 377.731 262.166L380.816 278.381C381.523 282.095 384.691 284.612 387.894 284.003L405.53 280.647C408.732 280.038 410.756 276.533 410.049 272.819L406.964 256.605C406.258 252.891 403.089 250.374 399.886 250.983Z" fill="#71C837"/>
<path d="M405.804 282.084L388.168 285.44C384.966 286.049 382.942 289.554 383.649 293.268L386.734 309.483C387.441 313.196 390.609 315.713 393.812 315.104L411.448 311.749C414.65 311.139 416.674 307.635 415.967 303.921L412.882 287.706C412.176 283.992 409.007 281.475 405.804 282.084Z" fill="#71C837"/>
<path d="M411.721 313.186L394.085 316.541C390.882 317.15 388.859 320.655 389.566 324.369L392.65 340.584C393.357 344.298 396.526 346.815 399.728 346.205L417.364 342.85C420.567 342.241 422.59 338.736 421.884 335.022L418.799 318.807C418.092 315.093 414.923 312.576 411.721 313.186Z" fill="#71C837"/>
<path d="M417.639 344.287L400.003 347.643C396.8 348.252 394.777 351.757 395.483 355.471L398.568 371.686C399.275 375.399 402.444 377.916 405.646 377.307L423.282 373.952C426.485 373.342 428.508 369.838 427.802 366.124L424.717 349.909C424.01 346.195 420.841 343.678 417.639 344.287Z" fill="#71C837"/>
<path d="M430.677 245.125L413.041 248.48C409.839 249.089 407.815 252.594 408.522 256.308L411.607 272.523C412.314 276.237 415.483 278.754 418.685 278.144L436.321 274.789C439.523 274.18 441.547 270.675 440.84 266.961L437.755 250.746C437.049 247.032 433.88 244.515 430.677 245.125Z" fill="#71C837"/>
<path d="M374.881 287.968L357.245 291.323C354.042 291.932 352.019 295.437 352.726 299.151L355.811 315.366C356.517 319.08 359.686 321.597 362.889 320.987L380.525 317.632C383.727 317.023 385.75 313.518 385.044 309.804L381.959 293.589C381.252 289.875 378.083 287.358 374.881 287.968Z" fill="#71C837"/>
<path d="M380.799 319.069L363.163 322.424C359.96 323.034 357.937 326.538 358.644 330.252L361.729 346.467C362.435 350.181 365.604 352.698 368.807 352.089L386.443 348.733C389.645 348.124 391.668 344.619 390.962 340.905L387.877 324.691C387.17 320.977 384.001 318.46 380.799 319.069Z" fill="#71C837"/>
<path d="M386.715 350.17L369.079 353.526C365.877 354.135 363.854 357.64 364.56 361.354L367.645 377.568C368.352 381.282 371.521 383.799 374.723 383.19L392.359 379.835C395.562 379.225 397.585 375.721 396.878 372.007L393.793 355.792C393.087 352.078 389.918 349.561 386.715 350.17Z" fill="#71C837"/>
<path d="M442.432 306.907L424.796 310.263C421.594 310.872 419.57 314.377 420.277 318.09L423.362 334.305C424.068 338.019 427.237 340.536 430.44 339.927L448.076 336.571C451.278 335.962 453.302 332.458 452.595 328.744L449.51 312.529C448.804 308.815 445.635 306.298 442.432 306.907Z" fill="#71C837"/>
<path d="M376.436 269.725C377.959 277.733 372.89 285.424 365.112 286.904C357.335 288.384 349.795 283.091 348.271 275.083C346.748 267.075 351.818 259.383 359.595 257.904C367.372 256.424 374.912 261.716 376.436 269.725Z" fill="#D40000"/>
</g>
</g>
</g>
<defs>
<filter id="filter0_d" x="0" y="0" width="898" height="898" filterUnits="userSpaceOnUse" color-interpolation-filters="sRGB">
<feFlood flood-opacity="0" result="BackgroundImageFix"/>
<feColorMatrix in="SourceAlpha" type="matrix" values="0 0 0 0 0 0 0 0 0 0 0 0 0 0 0 0 0 0 127 0"/>
<feMorphology radius="6" operator="erode" in="SourceAlpha" result="effect1_dropShadow"/>
<feOffset dx="-14" dy="9"/>
<feGaussianBlur stdDeviation="11.5"/>
<feColorMatrix type="matrix" values="0 0 0 0 0 0 0 0 0 0 0 0 0 0 0 0 0 0 0.17 0"/>
<feBlend mode="normal" in2="BackgroundImageFix" result="effect1_dropShadow"/>
<feBlend mode="normal" in="SourceGraphic" in2="effect1_dropShadow" result="shape"/>
</filter>
<filter id="filter1_d" x="27" y="8" width="872" height="872" filterUnits="userSpaceOnUse" color-interpolation-filters="sRGB">
<feFlood flood-opacity="0" result="BackgroundImageFix"/>
<feColorMatrix in="SourceAlpha" type="matrix" values="0 0 0 0 0 0 0 0 0 0 0 0 0 0 0 0 0 0 127 0"/>
<feOffset dy="4"/>
<feGaussianBlur stdDeviation="2"/>
<feColorMatrix type="matrix" values="0 0 0 0 0 0 0 0 0 0 0 0 0 0 0 0 0 0 0.25 0"/>
<feBlend mode="normal" in2="BackgroundImageFix" result="effect1_dropShadow"/>
<feBlend mode="normal" in="SourceGraphic" in2="effect1_dropShadow" result="shape"/>
</filter>
<clipPath id="clip0">
<rect width="92.5779" height="125.906" fill="white" transform="translate(345.393 260.606) rotate(-10.772)"/>
</clipPath>
</defs>
</svg>
