<svg width="895" height="890" viewBox="0 0 895 890" fill="none" xmlns="http://www.w3.org/2000/svg">
<g filter="url(#filter0_d)">
<circle cx="458" cy="436" r="428" fill="#C4C4C4"/>
</g>
<g filter="url(#filter1_d)">
<mask id="mask0" mask-type="alpha" maskUnits="userSpaceOnUse" x="27" y="2" width="864" height="864">
<circle cx="459" cy="434" r="432" fill="#C4C4C4"/>
</mask>
<g mask="url(#mask0)">
<circle cx="459" cy="434" r="432" fill="white"/>
<path d="M88.2718 382.168C81.3691 383.154 77.4782 383.496 72.2418 387.445C68.2231 390.475 64.4363 394.149 61.3043 398.091C57.409 402.995 55.3515 409.077 51.3932 413.964C47.3868 418.906 42.2168 423.342 36.1929 425.617C29.682 428.07 22.771 429.203 16.0631 430.974C17.5534 432.895 25.2003 447.182 44.5203 451.89C40.6778 454.863 35.5553 455.012 31.426 457.13C42.1909 464.292 48.3253 465.673 60.8208 466.116C70.899 466.472 72.4976 464.156 80.4297 462.289C78.4036 464.972 76.0369 468.089 73.5676 470.424C76.8801 469.676 86.3639 470.09 95.9662 462.895C111.449 451.306 124.346 433.26 121.796 413.11C120.475 402.657 115.041 394.785 109.04 386.429" fill="#F19B21"/>
<path d="M121.796 413.11C120.475 402.657 115.041 394.785 109.043 386.429L107.362 386.082C109.481 401.999 109.87 420.723 102.709 434.324C96.8823 445.39 84.7233 451.042 73.6886 455.519C67.4804 458.042 52.7045 461.448 55.365 449.786C56.3816 445.335 44.1619 445.48 41.3326 444.711C38.132 443.842 34.995 442.692 32.0396 441.168C26.7846 438.456 21.7298 434.895 18.2403 430.425C17.516 430.597 16.7878 430.78 16.0631 430.974C17.5534 432.895 25.2003 447.182 44.5203 451.89C40.6778 454.863 35.5553 455.012 31.426 457.13C42.1909 464.292 48.3253 465.673 60.8208 466.116C70.899 466.472 72.4976 464.156 80.4297 462.289C78.4036 464.972 76.0369 468.089 73.5676 470.424C76.8801 469.676 86.3639 470.09 95.9662 462.895C111.449 451.306 124.346 433.26 121.796 413.11" fill="#EF8523"/>
<path d="M683.53 679.69L685.126 680.118L716.578 397.647L261.447 275.695L147.449 536.048L149.057 536.479C147.256 538.163 146.038 540.05 145.478 542.138C137.838 570.651 248.072 641.393 396.724 681.224C545.376 721.055 676.159 714.893 683.799 686.381C684.358 684.293 684.247 682.049 683.53 679.69Z" fill="#404769"/>
<path d="M683.53 679.69L685.126 680.118L716.578 397.646L261.45 275.695L189.716 439.513C229.245 455.004 266.88 475.157 302.321 498.503C337.484 521.656 372.463 547.327 402.842 576.594C426.039 598.943 446.33 624.705 460.47 653.766C467.597 668.418 473.074 683.475 477.113 698.831C589.753 717.99 677.578 709.597 683.799 686.38C684.359 684.293 684.247 682.049 683.53 679.69" fill="#353B56"/>
<path d="M849.521 458.126L430.484 537.686L116.064 261.597L512.491 240.389L849.521 458.126Z" fill="#837EA7"/>
<path d="M849.521 458.126L430.484 537.686L116.064 261.597L125.452 226.56L512.491 240.389L858.909 423.09L849.521 458.126Z" fill="#3E476C"/>
<path d="M512.49 240.389L510.267 240.314L430.589 537.677L849.521 458.126L858.909 423.09L512.49 240.389Z" fill="#2B324F"/>
<path d="M858.912 423.082L439.875 502.642L125.453 226.552L521.883 205.34L858.912 423.082Z" fill="#3D3B4B"/>
<path d="M502.362 345.746C500.744 351.787 488.315 353.714 474.604 350.04C460.893 346.366 451.094 338.483 452.713 332.443C454.334 326.391 466.762 324.463 480.473 328.137C494.184 331.811 503.984 339.694 502.362 345.746Z" fill="#404769"/>
<path d="M473.274 333.585C438.687 310.77 397.158 306.291 356.965 301.934C336.033 299.668 315.109 297.249 294.671 292.022C274.503 286.855 257.545 277.262 239.853 266.678C224.02 257.209 207.374 248.813 188.759 247.073C172.133 245.51 156.141 252.414 143.979 263.378C120.609 284.436 109.275 318.332 100.317 347.53C97.5837 356.434 95.1548 365.419 92.7458 374.41C90.8523 381.476 101.804 384.41 103.697 377.344C111.739 347.343 120.363 316.775 136.839 290.16C145.411 276.314 156.765 264.422 172.756 259.782C191.923 254.215 211.727 263.753 228.053 272.939C245.285 282.629 261.18 293.123 280.062 299.533C299.253 306.027 319.524 308.886 339.562 311.316C380.892 316.334 424.307 317.975 461.228 339.377C463.379 340.629 465.459 341.992 467.531 343.365C473.654 347.4 479.347 337.583 473.274 333.585" fill="#F3B41F"/>
<path d="M112.003 386.571C109.716 395.108 100.944 400.168 92.407 397.881C83.8722 395.594 78.8069 386.825 81.0944 378.289C83.3819 369.752 92.1529 364.69 100.688 366.977C109.225 369.265 114.291 378.034 112.003 386.571Z" fill="#F3B41F"/>
<path d="M109.15 372.596C110.064 382.014 106.4 390.513 95.2181 392.698C91.1216 393.499 87.0956 392.821 83.2589 391.312C85.3395 394.432 88.5041 396.835 92.4066 397.881C100.944 400.168 109.716 395.107 112.003 386.571C113.353 381.534 112.125 376.424 109.15 372.596" fill="#F1A121"/>
<path d="M97.3333 371.866C97.8211 373.746 95.812 375.896 92.8471 376.657C89.8805 377.429 87.0848 376.508 86.596 374.627C86.1144 372.737 88.1234 370.587 91.0873 369.826C94.0521 369.065 96.8506 369.975 97.3333 371.866Z" fill="#F4CC1C"/>
<path d="M66.6897 399.442C65.1584 401.068 64.0812 402.723 63.0021 404.676C60.128 409.853 56.863 414.377 52.3234 418.262C48.7149 421.343 44.917 424.215 40.9848 426.878C37.5954 429.172 33.0724 431.048 30.2732 434.038C30.0505 434.276 36.7029 435.807 37.0775 435.873C42.0916 436.885 46.8285 436.622 51.6372 434.776C52.9379 434.267 54.764 431.874 56.2648 432.185C58.5234 432.664 53.574 437.045 55.0589 438.461C57.2877 440.579 61.6504 438.866 64.078 438.052C72.865 435.1 81.4662 431.778 87.0517 423.896C90.4605 419.079 94.8242 413.512 92.1798 407.553C90.6003 404.019 87.1605 403.509 84.2166 401.588C81.2307 399.644 79.9959 395.631 76.5559 394.331C72.67 392.878 69.118 396.868 66.6897 399.442" fill="#F3B41F"/>
</g>
</g>
<defs>
<filter id="filter0_d" x="0" y="0" width="890" height="890" filterUnits="userSpaceOnUse" color-interpolation-filters="sRGB">
<feFlood flood-opacity="0" result="BackgroundImageFix"/>
<feColorMatrix in="SourceAlpha" type="matrix" values="0 0 0 0 0 0 0 0 0 0 0 0 0 0 0 0 0 0 127 0"/>
<feMorphology radius="6" operator="erode" in="SourceAlpha" result="effect1_dropShadow"/>
<feOffset dx="-13" dy="9"/>
<feGaussianBlur stdDeviation="11.5"/>
<feColorMatrix type="matrix" values="0 0 0 0 0 0 0 0 0 0 0 0 0 0 0 0 0 0 0.17 0"/>
<feBlend mode="normal" in2="BackgroundImageFix" result="effect1_dropShadow"/>
<feBlend mode="normal" in="SourceGraphic" in2="effect1_dropShadow" result="shape"/>
</filter>
<filter id="filter1_d" x="23" y="2" width="872" height="872" filterUnits="userSpaceOnUse" color-interpolation-filters="sRGB">
<feFlood flood-opacity="0" result="BackgroundImageFix"/>
<feColorMatrix in="SourceAlpha" type="matrix" values="0 0 0 0 0 0 0 0 0 0 0 0 0 0 0 0 0 0 127 0"/>
<feOffset dy="4"/>
<feGaussianBlur stdDeviation="2"/>
<feColorMatrix type="matrix" values="0 0 0 0 0 0 0 0 0 0 0 0 0 0 0 0 0 0 0.25 0"/>
<feBlend mode="normal" in2="BackgroundImageFix" result="effect1_dropShadow"/>
<feBlend mode="normal" in="SourceGraphic" in2="effect1_dropShadow" result="shape"/>
</filter>
</defs>
</svg>
