<svg width="895" height="890" viewBox="0 0 895 890" fill="none" xmlns="http://www.w3.org/2000/svg">
<g filter="url(#filter0_d)">
<circle cx="458" cy="436" r="428" fill="#C4C4C4"/>
</g>
<g filter="url(#filter1_d)">
<mask id="mask0" mask-type="alpha" maskUnits="userSpaceOnUse" x="27" y="2" width="864" height="864">
<circle cx="459" cy="434" r="432" fill="#C4C4C4"/>
</mask>
<g mask="url(#mask0)">
<circle cx="459" cy="434" r="432" fill="white"/>
<mask id="mask1" mask-type="alpha" maskUnits="userSpaceOnUse" x="78" y="73" width="655" height="655">
<path d="M732.789 400.394C732.789 581.209 586.209 727.789 405.394 727.789C224.579 727.789 78 581.209 78 400.394C78 219.579 224.579 73 405.394 73C586.209 73 732.789 219.579 732.789 400.394Z" fill="#C2F8FF"/>
</mask>
<g mask="url(#mask1)">
<circle cx="405.394" cy="400.394" r="327.394" fill="#9BFFF9"/>
<path d="M595.453 531.703C595.453 472.713 520.241 502.208 487.796 366.532C463.9 266.601 531.248 238.007 579.231 230.117C579.584 230.059 580.301 229.953 581.32 229.809C581.592 229.769 581.884 229.727 582.196 229.685C589.972 228.63 610.112 227.151 641.17 241.178C686.887 261.824 778.322 356.208 778.322 388.653C778.322 421.097 698.685 499.259 689.837 509.582C680.988 519.905 595.453 590.693 595.453 531.703Z" fill="#67EB65"/>
<path d="M410.246 216.948C335.063 157.894 256.734 174.874 241.975 177.335H224.756C189.498 181.436 108.652 198.988 67.3265 236.39C15.6699 283.141 74.706 347.117 131.282 396.329C187.858 445.541 121.443 539.044 160.8 558.729C200.158 578.414 254.893 583.335 281.951 630.087C309.009 676.838 423.527 774.403 396.945 630.087C373.385 544.343 344.862 556.262 349.782 445.534C354.701 334.807 396.945 384.026 433.842 347.117C470.74 310.208 466.316 244.699 410.246 216.948Z" fill="#67EB65"/>
</g>
<mask id="mask2" mask-type="alpha" maskUnits="userSpaceOnUse" x="330" y="227" width="296" height="296">
<circle cx="477.658" cy="375.324" r="147.475" fill="#C4C4C4"/>
</mask>
<g mask="url(#mask2)">
<mask id="mask3" mask-type="alpha" maskUnits="userSpaceOnUse" x="-83" y="-29" width="976" height="976">
<path d="M892.799 458.647C892.799 727.833 674.581 946.052 405.394 946.052C136.208 946.052 -82.0103 727.833 -82.0103 458.647C-82.0103 189.461 136.208 -28.7578 405.394 -28.7578C674.581 -28.7578 892.799 189.461 892.799 458.647Z" fill="#C2F8FF"/>
</mask>
<g mask="url(#mask3)">
<circle cx="405.394" cy="458.647" r="487.405" fill="#9BFFF9"/>
<path d="M688.342 654.132C688.342 566.311 576.37 610.221 528.069 408.234C492.493 259.464 592.758 216.894 664.191 205.148C664.717 205.062 665.784 204.905 667.301 204.689C667.706 204.63 668.141 204.568 668.606 204.505C680.183 202.935 710.165 200.733 756.403 221.615C824.464 252.352 960.586 392.865 960.586 441.167C960.586 489.468 842.028 605.83 828.855 621.199C815.681 636.568 688.342 741.952 688.342 654.132Z" fill="#67EB65"/>
<path d="M412.617 185.543C300.689 97.6265 184.077 122.906 162.105 126.57H136.47C83.9811 132.675 -36.3784 158.806 -97.9009 214.486C-174.804 284.087 -86.9147 379.331 -2.68751 452.595C81.5397 525.859 -17.3358 665.06 41.2571 694.366C99.8499 723.671 181.336 730.998 221.619 800.599C261.901 870.199 432.388 1015.45 392.814 800.599C357.741 672.948 315.277 690.692 322.601 525.848C329.925 361.004 392.814 434.279 447.745 379.331C502.676 324.383 496.09 226.857 412.617 185.543Z" fill="#67EB65"/>
</g>
</g>
<path d="M776.408 627.157L774.228 624.945L720.777 677.596L722.064 678.877L736.004 693.041C744.98 702.135 764.197 697.711 778.959 683.18C793.717 668.625 798.408 649.482 789.467 640.401L776.408 627.157" fill="#49D63D"/>
<path d="M761.332 612.084L707.893 664.699L720.777 677.596L774.229 624.944L772.721 623.413L772.686 623.429L761.332 612.084Z" fill="white"/>
<path d="M482.618 523.215C402.337 522.618 337.747 457.055 338.338 376.771C338.941 296.473 404.511 231.879 484.788 232.48C565.074 233.074 629.67 298.633 629.066 378.934C628.464 459.222 562.916 523.811 482.618 523.215ZM482.421 171.077C368.247 170.23 275.005 262.117 274.148 376.288C273.302 490.461 365.162 583.702 479.348 584.551C521.654 584.867 561.061 572.421 593.985 550.842L707.892 664.699L761.332 612.084L648.202 498.979C672.615 465.327 687.296 424.105 687.627 379.366C688.485 265.19 596.606 171.928 482.421 171.077" fill="#14A0BF"/>
</g>
</g>
<defs>
<filter id="filter0_d" x="0" y="0" width="890" height="890" filterUnits="userSpaceOnUse" color-interpolation-filters="sRGB">
<feFlood flood-opacity="0" result="BackgroundImageFix"/>
<feColorMatrix in="SourceAlpha" type="matrix" values="0 0 0 0 0 0 0 0 0 0 0 0 0 0 0 0 0 0 127 0"/>
<feMorphology radius="6" operator="erode" in="SourceAlpha" result="effect1_dropShadow"/>
<feOffset dx="-13" dy="9"/>
<feGaussianBlur stdDeviation="11.5"/>
<feColorMatrix type="matrix" values="0 0 0 0 0 0 0 0 0 0 0 0 0 0 0 0 0 0 0.17 0"/>
<feBlend mode="normal" in2="BackgroundImageFix" result="effect1_dropShadow"/>
<feBlend mode="normal" in="SourceGraphic" in2="effect1_dropShadow" result="shape"/>
</filter>
<filter id="filter1_d" x="23" y="2" width="872" height="872" filterUnits="userSpaceOnUse" color-interpolation-filters="sRGB">
<feFlood flood-opacity="0" result="BackgroundImageFix"/>
<feColorMatrix in="SourceAlpha" type="matrix" values="0 0 0 0 0 0 0 0 0 0 0 0 0 0 0 0 0 0 127 0"/>
<feOffset dy="4"/>
<feGaussianBlur stdDeviation="2"/>
<feColorMatrix type="matrix" values="0 0 0 0 0 0 0 0 0 0 0 0 0 0 0 0 0 0 0.25 0"/>
<feBlend mode="normal" in2="BackgroundImageFix" result="effect1_dropShadow"/>
<feBlend mode="normal" in="SourceGraphic" in2="effect1_dropShadow" result="shape"/>
</filter>
</defs>
</svg>
