<svg width="50" height="50" viewBox="0 0 50 50" fill="none" xmlns="http://www.w3.org/2000/svg">
<circle cx="25" cy="25" r="25" fill="#178A04"/>
<path d="M25.25 9C16.3125 9 9 16.2962 9 25.2825C9 33.4075 14.9475 40.1512 22.715 41.37V29.995H18.5875V25.2825H22.715V21.6912C22.715 17.6125 25.1363 15.37 28.8575 15.37C30.6288 15.37 32.4813 15.6787 32.4813 15.6787V19.6925H30.4338C28.4188 19.6925 27.785 20.9437 27.785 22.2275V25.2825H32.3025L31.5713 29.995H27.785V41.37C31.6142 40.7652 35.1011 38.8115 37.6161 35.8613C40.1312 32.9112 41.5087 29.1592 41.5 25.2825C41.5 16.2962 34.1875 9 25.25 9Z" fill="white"/>
</svg>
