<svg width="385" height="285" viewBox="0 0 385 285" fill="none" xmlns="http://www.w3.org/2000/svg">
<path d="M41.4437 127.731H57.6837C65.417 127.731 71.1467 125.797 74.8728 121.931C78.5989 118.064 80.4619 112.932 80.4619 106.534C80.4619 100.348 78.5989 95.532 74.8728 92.0872C71.217 88.6423 66.1552 86.9199 59.6873 86.9199C53.8522 86.9199 48.9661 88.5368 45.0291 91.7708C41.0922 94.9344 39.1237 99.0823 39.1237 104.214H8.64728C8.64728 96.1999 10.7915 89.029 15.08 82.7017C19.4388 76.3041 25.4849 71.3126 33.2182 67.7271C41.0219 64.1417 49.5988 62.3489 58.9491 62.3489C75.1892 62.3489 87.914 66.2508 97.1237 74.0544C106.333 81.7877 110.938 92.4738 110.938 106.113C110.938 113.143 108.794 119.611 104.506 125.516C100.217 131.422 94.5928 135.956 87.6328 139.12C96.2801 142.213 102.713 146.853 106.931 153.04C111.22 159.227 113.364 166.538 113.364 174.975C113.364 188.613 108.372 199.545 98.3892 207.771C88.4764 215.996 75.3298 220.109 58.9491 220.109C43.6231 220.109 31.074 216.067 21.3018 207.982C11.6 199.897 6.7491 189.211 6.7491 175.924H37.2255C37.2255 181.688 39.3697 186.399 43.6582 190.055C48.017 193.71 53.3601 195.538 59.6873 195.538C66.9285 195.538 72.5879 193.64 76.6655 189.844C80.8134 185.977 82.8874 180.88 82.8874 174.553C82.8874 159.227 74.451 151.564 57.5782 151.564H41.4437V127.731Z" fill="#FF0000"/>
<path d="M150.203 108.942H134.185L131.388 118H118.9L136.683 69.5131H147.673L165.589 118H153.034L150.203 108.942ZM136.983 99.9173H147.406L142.178 83.1001L136.983 99.9173ZM205.728 112.006C203.929 114.004 201.299 115.613 197.835 116.834C194.372 118.056 190.576 118.666 186.446 118.666C180.097 118.666 175.024 116.723 171.227 112.838C167.431 108.953 165.4 103.547 165.133 96.6205L165.1 92.4245C165.1 87.6513 165.944 83.4886 167.631 79.9364C169.318 76.3621 171.727 73.6202 174.857 71.711C178.01 69.7795 181.651 68.8137 185.78 68.8137C191.819 68.8137 196.503 70.2013 199.833 72.9764C203.186 75.7293 205.139 79.8476 205.694 85.3313H194.438C194.039 82.6227 193.173 80.6913 191.841 79.5368C190.509 78.3824 188.622 77.8051 186.18 77.8051C183.249 77.8051 180.985 79.0484 179.386 81.5349C177.788 84.0214 176.977 87.5736 176.955 92.1914V95.1219C176.955 99.9617 177.777 103.603 179.42 106.045C181.085 108.465 183.693 109.675 187.245 109.675C190.287 109.675 192.551 108.998 194.039 107.643V100.117H185.913V92.0915H205.728V112.006ZM251.195 94.7556C251.195 99.4844 250.318 103.669 248.564 107.31C246.81 110.951 244.313 113.76 241.071 115.736C237.852 117.689 234.178 118.666 230.048 118.666C225.919 118.666 222.256 117.722 219.059 115.835C215.862 113.926 213.364 111.207 211.566 107.677C209.79 104.147 208.858 100.095 208.769 95.5215V92.7908C208.769 88.0398 209.635 83.8549 211.366 80.2361C213.12 76.5952 215.618 73.7867 218.859 71.8109C222.123 69.835 225.83 68.847 229.982 68.847C234.089 68.847 237.752 69.8239 240.971 71.7776C244.19 73.7312 246.688 76.5175 248.464 80.1362C250.262 83.7328 251.173 87.8622 251.195 92.5244V94.7556ZM239.306 92.7242C239.306 87.9066 238.496 84.2545 236.875 81.768C235.277 79.2593 232.979 78.0049 229.982 78.0049C224.121 78.0049 221.024 82.4007 220.691 91.1923L220.657 94.7556C220.657 99.5066 221.446 103.159 223.022 105.712C224.598 108.265 226.94 109.541 230.048 109.541C233.001 109.541 235.277 108.287 236.875 105.778C238.474 103.27 239.284 99.662 239.306 94.9554V92.7242ZM279.845 105.112C279.845 103.403 279.234 102.071 278.013 101.116C276.814 100.162 274.694 99.1736 271.653 98.1523C268.611 97.1311 266.125 96.1431 264.193 95.1885C257.91 92.1026 254.769 87.8622 254.769 82.4673C254.769 79.781 255.546 77.4166 257.1 75.3741C258.676 73.3094 260.896 71.711 263.76 70.5787C266.624 69.4243 269.843 68.847 273.418 68.847C276.903 68.847 280.022 69.4687 282.775 70.7119C285.55 71.9552 287.704 73.7312 289.236 76.0401C290.768 78.3269 291.534 80.9466 291.534 83.8993H279.878C279.878 81.9234 279.268 80.3915 278.046 79.3037C276.848 78.2158 275.216 77.6719 273.151 77.6719C271.064 77.6719 269.41 78.1381 268.189 79.0706C266.99 79.9808 266.391 81.1464 266.391 82.5672C266.391 83.8105 267.057 84.9427 268.389 85.964C269.721 86.963 272.063 88.0065 275.416 89.0943C278.768 90.16 281.521 91.3144 283.674 92.5577C288.914 95.577 291.534 99.7397 291.534 105.046C291.534 109.286 289.935 112.616 286.738 115.036C283.541 117.456 279.157 118.666 273.584 118.666C269.655 118.666 266.091 117.967 262.894 116.568C259.72 115.147 257.322 113.216 255.701 110.774C254.103 108.309 253.303 105.479 253.303 102.282H265.026C265.026 104.879 265.692 106.8 267.024 108.043C268.378 109.264 270.565 109.874 273.584 109.874C275.516 109.874 277.036 109.464 278.146 108.642C279.279 107.799 279.845 106.622 279.845 105.112ZM333.204 78.5378H318.652V118H306.963V78.5378H292.676V69.5131H333.204V78.5378ZM375.908 94.7556C375.908 99.4844 375.031 103.669 373.277 107.31C371.523 110.951 369.025 113.76 365.784 115.736C362.565 117.689 358.89 118.666 354.761 118.666C350.632 118.666 346.969 117.722 343.772 115.835C340.575 113.926 338.077 111.207 336.279 107.677C334.503 104.147 333.57 100.095 333.481 95.5215V92.7908C333.481 88.0398 334.347 83.8549 336.079 80.2361C337.833 76.5952 340.33 73.7867 343.572 71.8109C346.835 69.835 350.543 68.847 354.694 68.847C358.802 68.847 362.465 69.8239 365.684 71.7776C368.903 73.7312 371.401 76.5175 373.177 80.1362C374.975 83.7328 375.885 87.8622 375.908 92.5244V94.7556ZM364.019 92.7242C364.019 87.9066 363.209 84.2545 361.588 81.768C359.989 79.2593 357.692 78.0049 354.694 78.0049C348.833 78.0049 345.736 82.4007 345.403 91.1923L345.37 94.7556C345.37 99.5066 346.158 103.159 347.734 105.712C349.311 108.265 351.653 109.541 354.761 109.541C357.714 109.541 359.989 108.287 361.588 105.778C363.186 103.27 363.997 99.662 364.019 94.9554V92.7242Z" fill="#178A04"/>
<path d="M133.744 148.72H126.176L124.854 153H118.953L127.356 130.089H132.549L141.014 153H135.082L133.744 148.72ZM127.497 144.455H132.423L129.952 136.509L127.497 144.455ZM132.533 128.893H128.221L123.784 123.952H129.386L132.533 128.893ZM153.388 146.91C153.388 146.102 153.099 145.473 152.522 145.022C151.956 144.571 150.954 144.104 149.517 143.621C148.08 143.139 146.905 142.672 145.992 142.221C143.023 140.763 141.539 138.759 141.539 136.21C141.539 134.94 141.906 133.823 142.64 132.858C143.385 131.882 144.434 131.127 145.787 130.592C147.141 130.047 148.662 129.774 150.351 129.774C151.998 129.774 153.472 130.068 154.773 130.655C156.084 131.243 157.102 132.082 157.825 133.173C158.549 134.253 158.911 135.491 158.911 136.886H153.404C153.404 135.953 153.115 135.229 152.538 134.715C151.972 134.201 151.201 133.944 150.225 133.944C149.239 133.944 148.457 134.164 147.88 134.605C147.314 135.035 147.031 135.586 147.031 136.257C147.031 136.845 147.345 137.38 147.975 137.862C148.604 138.334 149.711 138.827 151.295 139.341C152.879 139.845 154.18 140.39 155.198 140.978C157.673 142.405 158.911 144.372 158.911 146.879C158.911 148.882 158.156 150.456 156.645 151.6C155.135 152.743 153.063 153.315 150.43 153.315C148.573 153.315 146.889 152.984 145.378 152.323C143.878 151.652 142.745 150.739 141.979 149.585C141.224 148.421 140.846 147.083 140.846 145.573H146.385C146.385 146.8 146.7 147.708 147.33 148.295C147.97 148.872 149.003 149.16 150.43 149.16C151.342 149.16 152.061 148.966 152.585 148.578C153.12 148.18 153.388 147.624 153.388 146.91Z" fill="#178A04"/>
<path d="M225.487 213H167.113V200.36L194.002 172.093C200.628 164.547 203.942 158.553 203.942 154.109C203.942 150.509 203.156 147.77 201.586 145.894C200.016 144.017 197.736 143.078 194.749 143.078C191.8 143.078 189.406 144.342 187.567 146.87C185.729 149.36 184.809 152.482 184.809 156.235H165.39C165.39 151.103 166.673 146.372 169.239 142.044C171.806 137.678 175.368 134.269 179.926 131.817C184.484 129.366 189.578 128.14 195.209 128.14C204.248 128.14 211.2 130.228 216.064 134.403C220.967 138.578 223.419 144.572 223.419 152.386C223.419 155.68 222.806 158.897 221.58 162.038C220.354 165.141 218.439 168.416 215.835 171.863C213.268 175.272 209.112 179.849 203.367 185.594L192.566 198.062H225.487V213ZM289.222 178.815C289.222 190.114 286.675 198.828 281.581 204.956C276.525 211.085 269.381 214.149 260.15 214.149C250.843 214.149 243.642 211.066 238.547 204.899C233.453 198.732 230.906 190.037 230.906 178.815V163.532C230.906 152.233 233.434 143.519 238.49 137.39C243.584 131.262 250.766 128.198 260.035 128.198C269.304 128.198 276.486 131.281 281.581 137.448C286.675 143.615 289.222 152.328 289.222 163.589V178.815ZM269.86 161.061C269.86 155.048 269.075 150.566 267.504 147.617C265.934 144.63 263.444 143.136 260.035 143.136C256.703 143.136 254.271 144.515 252.739 147.272C251.245 150.03 250.44 154.205 250.325 159.797V181.17C250.325 187.414 251.111 191.991 252.681 194.902C254.251 197.775 256.741 199.211 260.15 199.211C263.444 199.211 265.876 197.813 267.447 195.017C269.017 192.182 269.822 187.758 269.86 181.745V161.061ZM366.286 213H346.235V178.068H316.531V213H296.365V129.347H316.531V162.555H346.235V129.347H366.286V213Z" fill="#FF0000"/>
<path d="M17.9484 40.2876H25.4744V42H15.8433V26.1191H17.9484V40.2876ZM42.9936 37.8552H36.3402L34.8459 42H32.6863L38.7507 26.1191H40.5831L46.6585 42H44.5097L42.9936 37.8552ZM36.9728 36.1319H42.3719L39.6669 28.7041L36.9728 36.1319ZM67.1444 42H65.0393L57.0443 29.7621V42H54.9392V26.1191H57.0443L65.0611 38.4115V26.1191H67.1444V42ZM88.6884 36.9609C88.4921 38.6406 87.8704 39.9385 86.8233 40.8547C85.7834 41.7637 84.3982 42.2181 82.6676 42.2181C80.7916 42.2181 79.2864 41.5455 78.152 40.2003C77.0249 38.8551 76.4614 37.0554 76.4614 34.8012V33.2742C76.4614 31.7981 76.7232 30.5001 77.2467 29.3803C77.7775 28.2605 78.5265 27.4025 79.4936 26.8062C80.4607 26.2027 81.5805 25.9009 82.853 25.9009C84.54 25.9009 85.8925 26.3736 86.9105 27.3189C87.9285 28.2569 88.5212 29.5585 88.6884 31.2236H86.5833C86.4015 29.9584 86.0052 29.0422 85.3944 28.475C84.7909 27.9078 83.9438 27.6243 82.853 27.6243C81.5151 27.6243 80.4643 28.1187 79.7008 29.1076C78.9446 30.0966 78.5665 31.5036 78.5665 33.3287V34.8667C78.5665 36.59 78.9264 37.9607 79.6463 38.9787C80.3662 39.9967 81.3733 40.5057 82.6676 40.5057C83.831 40.5057 84.7218 40.2439 85.3399 39.7204C85.9652 39.1896 86.3797 38.2697 86.5833 36.9609H88.6884ZM83.3548 42.0982L83.2239 42.6653C84.3364 42.8617 84.8927 43.4907 84.8927 44.5523C84.8927 45.2576 84.6018 45.8139 84.0201 46.2211C83.4384 46.6356 82.6276 46.8428 81.5878 46.8428L81.5114 45.6757C82.0859 45.6757 82.5295 45.5812 82.8421 45.3922C83.1621 45.2031 83.322 44.9377 83.322 44.5959C83.322 44.276 83.2057 44.0397 82.973 43.887C82.7403 43.7343 82.2677 43.6252 81.5551 43.5597L81.9041 42.0982H83.3548ZM106.469 37.8552H99.816L98.3217 42H96.162L102.226 26.1191H104.059L110.134 42H107.985L106.469 37.8552ZM100.449 36.1319H105.848L103.143 28.7041L100.449 36.1319ZM121.12 26.1191L126.312 39.0769L131.504 26.1191H134.22V42H132.125V35.8156L132.322 29.1404L127.108 42H125.505L120.302 29.1731L120.509 35.8156V42H118.415V26.1191H121.12ZM153.037 34.6594H146.154V40.2876H154.149V42H144.06V26.1191H154.04V27.8424H146.154V32.947H153.037V34.6594ZM175.104 42H172.999L165.004 29.7621V42H162.899V26.1191H165.004L173.021 38.4115V26.1191H175.104V42ZM195.612 27.8424H190.507V42H188.424V27.8424H183.331V26.1191H195.612V27.8424ZM216.022 34.5722C216.022 36.1283 215.76 37.488 215.236 38.6515C214.713 39.8076 213.971 40.6911 213.011 41.3019C212.051 41.9127 210.932 42.2181 209.652 42.2181C208.401 42.2181 207.292 41.9127 206.325 41.3019C205.358 40.6839 204.605 39.8076 204.067 38.6733C203.537 37.5317 203.264 36.2119 203.249 34.714V33.5687C203.249 32.0417 203.515 30.6928 204.046 29.5221C204.576 28.3514 205.325 27.457 206.292 26.8389C207.267 26.2136 208.379 25.9009 209.63 25.9009C210.903 25.9009 212.022 26.21 212.989 26.828C213.964 27.4388 214.713 28.3296 215.236 29.5003C215.76 30.6637 216.022 32.0199 216.022 33.5687V34.5722ZM213.938 33.5469C213.938 31.6636 213.56 30.2202 212.804 29.2167C212.048 28.206 210.99 27.7006 209.63 27.7006C208.307 27.7006 207.263 28.206 206.5 29.2167C205.743 30.2202 205.354 31.6163 205.333 33.4051V34.5722C205.333 36.3973 205.714 37.8334 206.478 38.8805C207.249 39.9204 208.307 40.4403 209.652 40.4403C211.004 40.4403 212.051 39.9494 212.793 38.9678C213.535 37.9789 213.917 36.5646 213.938 34.7249V33.5469ZM245.966 34.6594H239.084V40.2876H247.079V42H236.99V26.1191H246.97V27.8424H239.084V32.947H245.966V34.6594ZM258.534 26.1191L263.726 39.0769L268.917 26.1191H271.633V42H269.539V35.8156L269.735 29.1404L264.522 42H262.918L257.716 29.1731L257.923 35.8156V42H255.829V26.1191H258.534Z" fill="#178A04"/>
</svg>
