<svg width="368" height="152" viewBox="0 0 368 152" fill="none" xmlns="http://www.w3.org/2000/svg">
<path d="M7.81415 30.4234H18.1709V35H1.86455V10.3202H7.81415V30.4234ZM27.019 35H21.0863V10.3202H27.019V35ZM40.7319 28.2876L45.6475 10.3202H52.2921L43.9864 35H37.4774L29.2395 10.3202H35.8332L40.7319 28.2876ZM69.412 24.5416H60.0554V30.4234H71.1071V35H54.1058V10.3202H71.141V14.9137H60.0554V20.1175H69.412V24.5416ZM83.1758 35V10.3202H90.1424C92.2895 10.3202 94.1879 10.7948 95.8378 11.744C97.4876 12.6932 98.7589 14.0436 99.6516 15.7952C100.556 17.5467 101.013 19.5582 101.025 21.8295V23.4059C101.025 25.7338 100.573 27.7735 99.6686 29.525C98.7758 31.2766 97.4933 32.6213 95.8208 33.5592C94.1597 34.4971 92.2217 34.9774 90.0068 35H83.1758ZM86.4303 12.9983V32.3388H89.8543C92.3629 32.3388 94.3122 31.5591 95.7022 29.9996C97.1034 28.4402 97.804 26.2197 97.804 23.3381V21.8973C97.804 19.0948 97.143 16.9195 95.8208 15.3714C94.51 13.812 92.6454 13.0209 90.2272 12.9983H86.4303ZM119.907 23.5924H109.212V32.3388H121.636V35H105.957V10.3202H121.467V12.9983H109.212V20.9311H119.907V23.5924ZM137.57 32.3388H149.266V35H134.298V10.3202H137.57V32.3388ZM166.945 28.5588H156.605L154.283 35H150.927L160.351 10.3202H163.199L172.64 35H169.301L166.945 28.5588ZM157.588 25.8807H165.979L161.775 14.3374L157.588 25.8807ZM194.93 35H191.659L179.234 15.9816V35H175.962V10.3202H179.234L191.693 29.4233V10.3202H194.93V35ZM218.864 27.1689C218.559 29.7793 217.593 31.7964 215.966 33.2202C214.35 34.6327 212.197 35.339 209.507 35.339C206.592 35.339 204.253 34.2937 202.49 32.2032C200.738 30.1126 199.863 27.3158 199.863 23.8127V21.4396C199.863 19.1457 200.269 17.1286 201.083 15.3883C201.908 13.6481 203.072 12.3147 204.575 11.388C206.078 10.4501 207.818 9.98115 209.796 9.98115C212.417 9.98115 214.519 10.7157 216.101 12.1847C217.683 13.6424 218.604 15.6652 218.864 18.253H215.593C215.31 16.2867 214.694 14.8629 213.745 13.9815C212.807 13.1 211.491 12.6593 209.796 12.6593C207.716 12.6593 206.083 13.4277 204.897 14.9646C203.722 16.5014 203.134 18.688 203.134 21.5244V23.9144C203.134 26.5926 203.693 28.7227 204.812 30.3047C205.931 31.8868 207.496 32.6778 209.507 32.6778C211.315 32.6778 212.7 32.271 213.66 31.4574C214.632 30.6324 215.276 29.203 215.593 27.1689H218.864ZM210.575 35.1526L210.372 36.034C212.101 36.3391 212.965 37.3166 212.965 38.9664C212.965 40.0625 212.513 40.927 211.609 41.5598C210.705 42.2039 209.445 42.526 207.829 42.526L207.711 40.7123C208.603 40.7123 209.293 40.5654 209.779 40.2716C210.276 39.9778 210.524 39.5653 210.524 39.0342C210.524 38.537 210.344 38.1697 209.982 37.9324C209.62 37.6951 208.886 37.5256 207.778 37.4239L208.321 35.1526H210.575ZM236.95 28.5588H226.61L224.288 35H220.932L230.356 10.3202H233.204L242.646 35H239.306L236.95 28.5588ZM227.594 25.8807H235.984L231.78 14.3374L227.594 25.8807ZM250.172 10.3202L258.24 30.4573L266.308 10.3202H270.529V35H267.275V25.3891L267.58 15.0154L259.477 35H256.986L248.9 15.0663L249.222 25.3891V35H245.968V10.3202H250.172ZM290.225 23.5924H279.53V32.3388H291.954V35H276.275V10.3202H291.785V12.9983H279.53V20.9311H290.225V23.5924ZM314.973 35H311.702L299.277 15.9816V35H296.005V10.3202H299.277L311.735 29.4233V10.3202H314.973V35ZM337.297 12.9983H329.364V35H326.126V12.9983H318.211V10.3202H337.297V12.9983ZM359.468 23.4568C359.468 25.875 359.061 27.9882 358.247 29.7962C357.434 31.593 356.281 32.9659 354.79 33.9152C353.298 34.8644 351.558 35.339 349.569 35.339C347.625 35.339 345.902 34.8644 344.399 33.9152C342.896 32.9546 341.726 31.593 340.89 29.8301C340.065 28.056 339.642 26.005 339.619 23.6771V21.8973C339.619 19.5243 340.031 17.428 340.856 15.6087C341.681 13.7894 342.845 12.3994 344.348 11.4389C345.862 10.4671 347.591 9.98115 349.535 9.98115C351.513 9.98115 353.253 10.4614 354.756 11.4219C356.27 12.3712 357.434 13.7555 358.247 15.5748C359.061 17.3828 359.468 19.4903 359.468 21.8973V23.4568ZM356.23 21.8634C356.23 18.9366 355.643 16.6935 354.468 15.1341C353.292 13.5633 351.648 12.778 349.535 12.778C347.478 12.778 345.857 13.5633 344.67 15.1341C343.495 16.6935 342.89 18.8632 342.856 21.6431V23.4568C342.856 26.2931 343.45 28.5249 344.636 30.1522C345.834 31.7681 347.478 32.5761 349.569 32.5761C351.671 32.5761 353.298 31.8133 354.451 30.2878C355.603 28.7509 356.196 26.553 356.23 23.6941V21.8634Z" fill="white"/>
<path d="M21.1598 127.648H10.3731V139H6.98355V113.296H22.9076V116.085H10.3731V124.877H21.1598V127.648ZM37.6488 139C37.4605 138.623 37.3075 137.953 37.1898 136.987C35.6715 138.565 33.859 139.353 31.7523 139.353C29.8692 139.353 28.3215 138.823 27.1093 137.764C25.9088 136.693 25.3085 135.34 25.3085 133.704C25.3085 131.715 26.0618 130.173 27.5683 129.078C29.0865 127.972 31.2168 127.419 33.9591 127.419H37.1368V125.918C37.1368 124.777 36.7955 123.87 36.1129 123.2C35.4302 122.517 34.4239 122.176 33.094 122.176C31.9288 122.176 30.952 122.47 30.1634 123.058C29.3749 123.647 28.9806 124.359 28.9806 125.194H25.6969C25.6969 124.241 26.0324 123.323 26.7032 122.44C27.3858 121.546 28.3038 120.84 29.4573 120.322C30.6224 119.804 31.8994 119.545 33.2882 119.545C35.4891 119.545 37.2133 120.098 38.4609 121.205C39.7084 122.299 40.3557 123.812 40.4028 125.742V134.534C40.4028 136.287 40.6264 137.682 41.0737 138.718V139H37.6488ZM32.2289 136.511C33.2529 136.511 34.2239 136.246 35.1419 135.716C36.0599 135.187 36.7249 134.498 37.1368 133.651V129.732H34.5769C30.5753 129.732 28.5745 130.903 28.5745 133.245C28.5745 134.269 28.9159 135.069 29.5985 135.646C30.2811 136.222 31.1579 136.511 32.2289 136.511ZM53.1844 136.687C54.3496 136.687 55.3676 136.334 56.2386 135.628C57.1095 134.922 57.592 134.039 57.6862 132.98H60.7757C60.7168 134.074 60.3402 135.116 59.6458 136.105C58.9514 137.093 58.0216 137.882 56.8565 138.47C55.7031 139.059 54.479 139.353 53.1844 139.353C50.5834 139.353 48.5119 138.488 46.9701 136.758C45.4401 135.016 44.6751 132.639 44.6751 129.626V129.078C44.6751 127.219 45.0164 125.565 45.699 124.118C46.3817 122.67 47.3585 121.546 48.6296 120.746C49.9125 119.945 51.4249 119.545 53.1667 119.545C55.3088 119.545 57.086 120.187 58.4983 121.469C59.9224 122.752 60.6815 124.418 60.7757 126.466H57.6862C57.592 125.23 57.1213 124.218 56.2739 123.429C55.4382 122.629 54.4025 122.229 53.1667 122.229C51.5073 122.229 50.2185 122.829 49.3005 124.029C48.3942 125.218 47.9411 126.942 47.9411 129.202V129.82C47.9411 132.021 48.3942 133.716 49.3005 134.904C50.2067 136.093 51.5014 136.687 53.1844 136.687ZM72.3744 139.353C69.7852 139.353 67.6784 138.506 66.0543 136.811C64.4301 135.104 63.618 132.827 63.618 129.979V129.379C63.618 127.484 63.977 125.795 64.6949 124.312C65.4246 122.817 66.4368 121.652 67.7314 120.816C69.0378 119.969 70.4501 119.545 71.9684 119.545C74.4517 119.545 76.3819 120.363 77.7589 121.999C79.136 123.635 79.8245 125.977 79.8245 129.025V130.385H66.884C66.9311 132.268 67.4784 133.792 68.5258 134.957C69.5851 136.111 70.9268 136.687 72.551 136.687C73.7044 136.687 74.6812 136.452 75.4816 135.981C76.2819 135.51 76.9822 134.887 77.5824 134.11L79.5773 135.663C77.9767 138.123 75.5757 139.353 72.3744 139.353ZM71.9684 122.229C70.6502 122.229 69.5439 122.711 68.6494 123.676C67.7549 124.63 67.2018 125.971 66.9899 127.701H76.5585V127.454C76.4643 125.795 76.0171 124.512 75.2167 123.606C74.4164 122.688 73.3336 122.229 71.9684 122.229ZM99.7913 129.661C99.7913 132.58 99.1204 134.928 97.7787 136.705C96.437 138.47 94.6363 139.353 92.3766 139.353C89.9638 139.353 88.0984 138.5 86.7802 136.793L86.6213 139H83.6201V111.883H86.8861V121.999C88.2043 120.363 90.0227 119.545 92.3412 119.545C94.6598 119.545 96.4782 120.422 97.7964 122.176C99.1263 123.929 99.7913 126.33 99.7913 129.379V129.661ZM96.5253 129.29C96.5253 127.066 96.0957 125.347 95.2365 124.135C94.3774 122.923 93.1416 122.317 91.5292 122.317C89.3754 122.317 87.8277 123.317 86.8861 125.318V133.58C87.8865 135.581 89.446 136.581 91.5645 136.581C93.1298 136.581 94.3479 135.975 95.2189 134.763C96.0898 133.551 96.5253 131.726 96.5253 129.29ZM103.057 129.273C103.057 127.401 103.422 125.718 104.152 124.223C104.893 122.729 105.917 121.575 107.224 120.763C108.542 119.951 110.042 119.545 111.725 119.545C114.327 119.545 116.427 120.446 118.028 122.246C119.64 124.047 120.447 126.442 120.447 129.431V129.661C120.447 131.521 120.088 133.192 119.37 134.675C118.664 136.146 117.645 137.293 116.316 138.117C114.997 138.941 113.479 139.353 111.761 139.353C109.172 139.353 107.071 138.453 105.458 136.652C103.858 134.851 103.057 132.468 103.057 129.502V129.273ZM106.341 129.661C106.341 131.779 106.829 133.48 107.806 134.763C108.795 136.046 110.113 136.687 111.761 136.687C113.42 136.687 114.738 136.04 115.715 134.745C116.692 133.439 117.181 131.615 117.181 129.273C117.181 127.178 116.68 125.483 115.68 124.188C114.691 122.882 113.373 122.229 111.725 122.229C110.113 122.229 108.813 122.87 107.824 124.153C106.835 125.436 106.341 127.272 106.341 129.661ZM123.677 129.273C123.677 127.401 124.042 125.718 124.772 124.223C125.513 122.729 126.537 121.575 127.844 120.763C129.162 119.951 130.662 119.545 132.346 119.545C134.947 119.545 137.047 120.446 138.648 122.246C140.26 124.047 141.067 126.442 141.067 129.431V129.661C141.067 131.521 140.708 133.192 139.99 134.675C139.284 136.146 138.266 137.293 136.936 138.117C135.617 138.941 134.099 139.353 132.381 139.353C129.792 139.353 127.691 138.453 126.078 136.652C124.478 134.851 123.677 132.468 123.677 129.502V129.273ZM126.961 129.661C126.961 131.779 127.449 133.48 128.426 134.763C129.415 136.046 130.733 136.687 132.381 136.687C134.04 136.687 135.358 136.04 136.335 134.745C137.312 133.439 137.801 131.615 137.801 129.273C137.801 127.178 137.3 125.483 136.3 124.188C135.311 122.882 133.993 122.229 132.346 122.229C130.733 122.229 129.433 122.87 128.444 124.153C127.455 125.436 126.961 127.272 126.961 129.661ZM150.494 130.155L148.446 132.291V139H145.18V111.883H148.446V128.284L150.194 126.183L156.143 119.898H160.115L152.683 127.878L160.981 139H157.15L150.494 130.155ZM173.109 141.207H170.302L181.036 113.296H183.825L173.109 141.207ZM200.473 139H197.083V113.296H200.473V139ZM209.265 119.898L209.37 122.299C210.83 120.463 212.737 119.545 215.09 119.545C219.127 119.545 221.163 121.823 221.199 126.377V139H217.933V126.36C217.921 124.983 217.603 123.965 216.979 123.305C216.367 122.646 215.408 122.317 214.102 122.317C213.043 122.317 212.113 122.599 211.312 123.164C210.512 123.729 209.888 124.471 209.441 125.389V139H206.175V119.898H209.265ZM237.246 133.933C237.246 133.051 236.911 132.368 236.24 131.885C235.581 131.391 234.422 130.967 232.762 130.614C231.114 130.261 229.802 129.838 228.825 129.343C227.86 128.849 227.142 128.26 226.672 127.578C226.212 126.895 225.983 126.083 225.983 125.142C225.983 123.576 226.642 122.252 227.96 121.169C229.29 120.087 230.985 119.545 233.045 119.545C235.21 119.545 236.964 120.104 238.306 121.222C239.659 122.34 240.336 123.77 240.336 125.512H237.052C237.052 124.618 236.67 123.847 235.905 123.2C235.151 122.552 234.198 122.229 233.045 122.229C231.856 122.229 230.926 122.488 230.255 123.005C229.584 123.523 229.249 124.2 229.249 125.036C229.249 125.824 229.561 126.418 230.185 126.819C230.808 127.219 231.932 127.601 233.557 127.966C235.193 128.331 236.517 128.766 237.529 129.273C238.541 129.779 239.288 130.391 239.771 131.109C240.265 131.815 240.512 132.68 240.512 133.704C240.512 135.41 239.83 136.781 238.464 137.817C237.099 138.841 235.328 139.353 233.151 139.353C231.621 139.353 230.267 139.082 229.09 138.541C227.913 138 226.989 137.246 226.318 136.281C225.659 135.304 225.33 134.251 225.33 133.121H228.596C228.655 134.216 229.09 135.087 229.902 135.734C230.726 136.37 231.809 136.687 233.151 136.687C234.386 136.687 235.375 136.44 236.116 135.946C236.87 135.44 237.246 134.769 237.246 133.933ZM249.198 115.273V119.898H252.764V122.423H249.198V134.269C249.198 135.034 249.357 135.61 249.675 135.999C249.993 136.375 250.534 136.564 251.299 136.564C251.676 136.564 252.193 136.493 252.853 136.352V139C251.993 139.235 251.158 139.353 250.346 139.353C248.886 139.353 247.786 138.912 247.044 138.029C246.303 137.146 245.932 135.893 245.932 134.269V122.423H242.454V119.898H245.932V115.273H249.198ZM268.388 139C268.2 138.623 268.047 137.953 267.929 136.987C266.411 138.565 264.598 139.353 262.492 139.353C260.609 139.353 259.061 138.823 257.849 137.764C256.648 136.693 256.048 135.34 256.048 133.704C256.048 131.715 256.801 130.173 258.308 129.078C259.826 127.972 261.956 127.419 264.698 127.419H267.876V125.918C267.876 124.777 267.535 123.87 266.852 123.2C266.17 122.517 265.163 122.176 263.833 122.176C262.668 122.176 261.691 122.47 260.903 123.058C260.114 123.647 259.72 124.359 259.72 125.194H256.436C256.436 124.241 256.772 123.323 257.443 122.44C258.125 121.546 259.043 120.84 260.197 120.322C261.362 119.804 262.639 119.545 264.028 119.545C266.229 119.545 267.953 120.098 269.2 121.205C270.448 122.299 271.095 123.812 271.142 125.742V134.534C271.142 136.287 271.366 137.682 271.813 138.718V139H268.388ZM262.968 136.511C263.992 136.511 264.963 136.246 265.881 135.716C266.799 135.187 267.464 134.498 267.876 133.651V129.732H265.316C261.315 129.732 259.314 130.903 259.314 133.245C259.314 134.269 259.655 135.069 260.338 135.646C261.021 136.222 261.897 136.511 262.968 136.511ZM275.485 129.29C275.485 126.313 276.174 123.947 277.551 122.193C278.928 120.428 280.752 119.545 283.023 119.545C285.354 119.545 287.172 120.369 288.479 122.017L288.637 119.898H291.621V138.541C291.621 141.013 290.885 142.96 289.414 144.385C287.955 145.809 285.989 146.521 283.518 146.521C282.141 146.521 280.793 146.226 279.475 145.638C278.157 145.049 277.151 144.243 276.456 143.219L278.151 141.26C279.552 142.99 281.264 143.855 283.288 143.855C284.877 143.855 286.113 143.408 286.996 142.513C287.89 141.619 288.337 140.359 288.337 138.735V137.093C287.031 138.6 285.248 139.353 282.988 139.353C280.752 139.353 278.939 138.453 277.551 136.652C276.174 134.851 275.485 132.397 275.485 129.29ZM278.769 129.661C278.769 131.815 279.21 133.51 280.093 134.745C280.976 135.969 282.211 136.581 283.8 136.581C285.86 136.581 287.372 135.646 288.337 133.774V125.053C287.337 123.229 285.836 122.317 283.836 122.317C282.247 122.317 281.005 122.935 280.111 124.171C279.216 125.406 278.769 127.236 278.769 129.661ZM305.797 122.829C305.303 122.746 304.767 122.705 304.191 122.705C302.049 122.705 300.595 123.617 299.83 125.442V139H296.564V119.898H299.742L299.795 122.105C300.866 120.398 302.384 119.545 304.35 119.545C304.985 119.545 305.468 119.628 305.797 119.792V122.829ZM319.903 139C319.715 138.623 319.562 137.953 319.444 136.987C317.926 138.565 316.113 139.353 314.006 139.353C312.123 139.353 310.576 138.823 309.363 137.764C308.163 136.693 307.563 135.34 307.563 133.704C307.563 131.715 308.316 130.173 309.822 129.078C311.341 127.972 313.471 127.419 316.213 127.419H319.391V125.918C319.391 124.777 319.05 123.87 318.367 123.2C317.684 122.517 316.678 122.176 315.348 122.176C314.183 122.176 313.206 122.47 312.418 123.058C311.629 123.647 311.235 124.359 311.235 125.194H307.951C307.951 124.241 308.287 123.323 308.957 122.44C309.64 121.546 310.558 120.84 311.711 120.322C312.877 119.804 314.154 119.545 315.542 119.545C317.743 119.545 319.467 120.098 320.715 121.205C321.963 122.299 322.61 123.812 322.657 125.742V134.534C322.657 136.287 322.881 137.682 323.328 138.718V139H319.903ZM314.483 136.511C315.507 136.511 316.478 136.246 317.396 135.716C318.314 135.187 318.979 134.498 319.391 133.651V129.732H316.831C312.83 129.732 310.829 130.903 310.829 133.245C310.829 134.269 311.17 135.069 311.853 135.646C312.535 136.222 313.412 136.511 314.483 136.511ZM330.849 119.898L330.937 122.017C332.337 120.369 334.226 119.545 336.604 119.545C339.275 119.545 341.094 120.569 342.059 122.617C342.694 121.699 343.518 120.957 344.53 120.393C345.554 119.828 346.761 119.545 348.15 119.545C352.339 119.545 354.47 121.764 354.54 126.201V139H351.274V126.395C351.274 125.03 350.962 124.012 350.339 123.341C349.715 122.658 348.667 122.317 347.196 122.317C345.984 122.317 344.978 122.682 344.177 123.411C343.377 124.129 342.912 125.1 342.783 126.324V139H339.499V126.483C339.499 123.706 338.14 122.317 335.421 122.317C333.279 122.317 331.814 123.229 331.025 125.053V139H327.759V119.898H330.849Z" fill="white"/>
<path d="M32.9403 77.1823C32.9403 83.0716 31.6128 87.6134 28.9576 90.8076C26.3223 94.0018 22.5991 95.5989 17.7878 95.5989C12.9366 95.5989 9.18337 93.9918 6.52818 90.7776C3.87299 87.5635 2.54539 83.0317 2.54539 77.1823V69.2167C2.54539 63.3274 3.863 58.7856 6.49823 55.5914C9.15342 52.3971 12.8966 50.8 17.7279 50.8C22.5591 50.8 26.3024 52.4071 28.9576 55.6213C31.6128 58.8355 32.9403 63.3773 32.9403 69.2466V77.1823ZM22.8486 67.929C22.8486 64.7947 22.4394 62.4589 21.6208 60.9217C20.8023 59.3645 19.5047 58.5859 17.7279 58.5859C15.991 58.5859 14.7233 59.3046 13.9248 60.742C13.1462 62.1794 12.727 64.3555 12.6671 67.2702V78.41C12.6671 81.6641 13.0763 84.0498 13.8948 85.5671C14.7134 87.0644 16.011 87.813 17.7878 87.813C19.5047 87.813 20.7724 87.0843 21.5909 85.627C22.4094 84.1496 22.8287 81.8438 22.8486 78.7095V67.929ZM47.4042 68.9771H52.1655C55.9387 68.9771 57.8253 67.1305 57.8253 63.4372C57.8253 61.9998 57.3761 60.8319 56.4777 59.9335C55.5794 59.0152 54.3116 58.556 52.6746 58.556C51.337 58.556 50.1692 58.9453 49.171 59.7239C48.1927 60.5025 47.7036 61.4707 47.7036 62.6286H37.6119C37.6119 60.3328 38.2507 58.2865 39.5284 56.4897C40.8061 54.693 42.5729 53.2955 44.8288 52.2973C47.1047 51.2792 49.6002 50.7701 52.3153 50.7701C57.1665 50.7701 60.9796 51.8781 63.7545 54.0941C66.5295 56.3101 67.917 59.3545 67.917 63.2275C67.917 65.1041 67.3381 66.8809 66.1802 68.5579C65.0422 70.2149 63.3752 71.5624 61.1792 72.6006C63.495 73.439 65.3117 74.7167 66.6293 76.4336C67.947 78.1305 68.6058 80.2367 68.6058 82.7522C68.6058 86.6451 67.1085 89.7595 64.1139 92.0953C61.1193 94.431 57.1864 95.5989 52.3153 95.5989C49.4604 95.5989 46.8052 95.0599 44.3497 93.9818C41.9141 92.8838 40.0674 91.3766 38.8097 89.46C37.552 87.5235 36.9231 85.3275 36.9231 82.872H47.0748C47.0748 84.2095 47.6138 85.3674 48.6918 86.3457C49.7699 87.3239 51.0975 87.813 52.6746 87.813C54.4514 87.813 55.8688 87.3239 56.9269 86.3457C57.985 85.3475 58.514 84.0798 58.514 82.5426C58.514 80.3465 57.965 78.7894 56.867 77.871C55.769 76.9527 54.2518 76.4935 52.3153 76.4935H47.4042V68.9771ZM114.363 86.8547H99.959L97.4435 95H86.2139L102.205 51.399H112.087L128.198 95H116.908L114.363 86.8547ZM102.474 78.7394H111.847L107.146 63.6168L102.474 78.7394ZM166.439 89.6098C164.822 91.4065 162.456 92.8539 159.341 93.9519C156.227 95.0499 152.813 95.5989 149.1 95.5989C143.39 95.5989 138.829 93.8521 135.415 90.3584C132.001 86.8647 130.174 82.0035 129.935 75.7748L129.905 72.0016C129.905 67.7094 130.663 63.9662 132.181 60.772C133.698 57.5578 135.864 55.0923 138.679 53.3754C141.514 51.6385 144.788 50.7701 148.501 50.7701C153.931 50.7701 158.144 52.0178 161.138 54.5133C164.153 56.9888 165.91 60.6921 166.409 65.6232H156.287C155.928 63.1876 155.149 61.4508 153.951 60.4126C152.753 59.3745 151.056 58.8555 148.86 58.8555C146.225 58.8555 144.189 59.9734 142.752 62.2094C141.314 64.4453 140.585 67.6395 140.565 71.792V74.4273C140.565 78.7794 141.304 82.0534 142.781 84.2495C144.279 86.4255 146.624 87.5136 149.819 87.5136C152.554 87.5136 154.59 86.9047 155.928 85.6869V78.9191H148.621V71.7022H166.439V89.6098ZM209.471 74.0979C209.471 78.3502 208.682 82.1133 207.105 85.3874C205.528 88.6615 203.282 91.1869 200.367 92.9637C197.472 94.7205 194.168 95.5989 190.455 95.5989C186.742 95.5989 183.448 94.7505 180.573 93.0535C177.698 91.3366 175.452 88.8911 173.835 85.7168C172.238 82.5426 171.4 78.8992 171.32 74.7866V72.3311C171.32 68.0588 172.098 64.2956 173.656 61.0415C175.233 57.7674 177.479 55.242 180.393 53.4652C183.328 51.6884 186.662 50.8 190.395 50.8C194.089 50.8 197.383 51.6784 200.277 53.4353C203.172 55.1921 205.418 57.6975 207.015 60.9517C208.632 64.1858 209.451 67.8991 209.471 72.0915V74.0979ZM198.78 72.2712C198.78 67.939 198.051 64.655 196.594 62.419C195.157 60.1631 193.09 59.0351 190.395 59.0351C185.125 59.0351 182.34 62.988 182.04 70.8937L182.01 74.0979C182.01 78.3701 182.719 81.6542 184.137 83.95C185.554 86.2459 187.66 87.3938 190.455 87.3938C193.11 87.3938 195.157 86.2658 196.594 84.0099C198.031 81.754 198.76 78.5099 198.78 74.2775V72.2712ZM217.017 85.2077C218.614 85.2077 219.942 85.6869 221 86.6451C222.058 87.5834 222.587 88.7912 222.587 90.2686C222.587 91.7459 222.058 92.9637 221 93.922C219.942 94.8603 218.614 95.3294 217.017 95.3294C215.4 95.3294 214.062 94.8503 213.004 93.892C211.966 92.9337 211.447 91.7259 211.447 90.2686C211.447 88.8112 211.966 87.6034 213.004 86.6451C214.062 85.6869 215.4 85.2077 217.017 85.2077ZM274.872 95H244.447V88.4119L258.462 73.6786C261.916 69.7457 263.643 66.6214 263.643 64.3056C263.643 62.429 263.233 61.0016 262.415 60.0233C261.596 59.0451 260.408 58.556 258.851 58.556C257.314 58.556 256.066 59.2148 255.108 60.5324C254.15 61.8301 253.671 63.4571 253.671 65.4136H243.549C243.549 62.7384 244.218 60.2729 245.555 58.017C246.893 55.7411 248.75 53.9643 251.125 52.6866C253.501 51.4089 256.156 50.7701 259.091 50.7701C263.802 50.7701 267.426 51.8581 269.961 54.0342C272.517 56.2102 273.794 59.3346 273.794 63.4072C273.794 65.1241 273.475 66.8011 272.836 68.4381C272.197 70.0552 271.199 71.7621 269.841 73.5588C268.504 75.3356 266.338 77.7213 263.343 80.7159L257.713 87.2141H274.872V95ZM310.238 77.1823C310.238 83.0716 308.911 87.6134 306.255 90.8076C303.62 94.0018 299.897 95.5989 295.086 95.5989C290.234 95.5989 286.481 93.9918 283.826 90.7776C281.171 87.5635 279.843 83.0317 279.843 77.1823V69.2167C279.843 63.3274 281.161 58.7856 283.796 55.5914C286.451 52.3971 290.194 50.8 295.026 50.8C299.857 50.8 303.6 52.4071 306.255 55.6213C308.911 58.8355 310.238 63.3773 310.238 69.2466V77.1823ZM300.146 67.929C300.146 64.7947 299.737 62.4589 298.919 60.9217C298.1 59.3645 296.803 58.5859 295.026 58.5859C293.289 58.5859 292.021 59.3046 291.223 60.742C290.444 62.1794 290.025 64.3555 289.965 67.2702V78.41C289.965 81.6641 290.374 84.0498 291.193 85.5671C292.011 87.0644 293.309 87.813 295.086 87.813C296.803 87.813 298.07 87.0843 298.889 85.627C299.707 84.1496 300.127 81.8438 300.146 78.7095V67.929ZM352.552 95H342.101V76.793H326.619V95H316.108V51.399H326.619V68.7076H342.101V51.399H352.552V95Z" fill="white"/>
</svg>
