<?xml version="1.0" encoding="UTF-8"?>
<!DOCTYPE svg PUBLIC "-//W3C//DTD SVG 1.1//EN" "http://www.w3.org/Graphics/SVG/1.1/DTD/svg11.dtd">
<!-- Creator: CorelDRAW 2018 (64 Bit Versão de avaliação) -->
<svg xmlns="http://www.w3.org/2000/svg" xml:space="preserve" width="47.9319mm" height="23.1268mm" version="1.1" style="shape-rendering:geometricPrecision; text-rendering:geometricPrecision; image-rendering:optimizeQuality; fill-rule:evenodd; clip-rule:evenodd"
viewBox="0 0 1141.53 550.78"
 xmlns:xlink="http://www.w3.org/1999/xlink">
 <defs>
  <style type="text/css">
   <![CDATA[
    .fil0 {fill:#317302}
    .fil1 {fill:#F2F2F2;fill-rule:nonzero}
   ]]>
  </style>
 </defs>
 <g id="Camada_x0020_1">
  <metadata id="CorelCorpID_0Corel-Layer"/>
  <polygon class="fil0" points="-0,0 1141.53,0 1141.53,205.68 -0,205.68 "/>
  <polygon class="fil0" points="-0,213.37 933.49,213.37 933.49,375.9 -0,375.9 "/>
  <polygon class="fil0" points="-0,388.26 761.22,388.26 761.22,550.78 -0,550.78 "/>
  <path class="fil1" d="M110.77 123.11l10.39 -33.37 9.02 33.37 -19.41 0zm-48.53 49.72l33.88 0 7.15 -21.62 33.54 0 7.32 21.62 33.88 0 -37.8 -124.46 -38.99 0 -38.99 124.46zm166.18 -27.25c0,26.05 22.3,28.27 33.37,27.93 0,0 36.44,-0.51 53.97,-2.89l0 -27.58 -43.76 0c-4.94,0 -10.56,0.17 -10.56,-8.86l0 -7.49 45.8 -1.53 0 -27.41 -45.8 -1.87 0 -7.49c0,-4.6 0,-9.53 8.85,-9.53l45.46 0 0 -27.75c-19.92,-2.72 -55.68,-2.72 -55.68,-2.72 -12.09,0 -31.67,3.23 -31.67,28.95l0 68.27zm130.42 -0.68l0 -68.62 21.96 0c8,0 12.77,3.89 12.77,34.65 0,23.95 -3.07,33.97 -12.77,33.97l-21.96 0zm-33.03 27.92l58.4 0c28.44,0 42.39,-18.22 42.39,-61.72 0,-35.16 -8.51,-62.74 -42.39,-62.74l-58.4 0 0 124.46zm113.56 -54.31c0,56.7 26.39,55.34 49.55,55.34 20.6,0 48.7,-0.34 48.7,-55.34l0 -70.15 -33.2 0 0 70.15c0,15.32 -0.34,25.71 -15.49,25.71 -16.18,0 -16.51,-9.7 -16.51,-25.71l0 -70.15 -33.03 0 0 70.15zm109.14 -8.18c0,41.89 11.58,63.17 43.08,63.68 25.2,0.51 34.39,-1.02 44.95,-5.45l0 -25.71c0,0 -16.69,1.53 -34.57,1.53 -17.2,0 -20.43,-5.79 -20.43,-33.71 0,-34.73 5.96,-34.05 20.26,-34.05 17.54,0 34.56,2.9 34.74,2.9l0 -25.71c-14.65,-5.45 -20.43,-6.81 -44.95,-6.81 -33.88,0 -43.08,23.5 -43.08,63.34zm144.04 12.77l10.39 -33.37 9.02 33.37 -19.41 0zm-48.53 49.72l33.88 0 7.15 -21.62 33.54 0 7.32 21.62 33.88 0 -37.8 -124.46 -38.99 0 -38.99 124.46zm116.97 -62.49c0,41.89 11.58,63.17 43.08,63.68 25.2,0.51 34.39,-1.02 44.95,-5.45l0 -25.71c0,0 -16.69,1.53 -34.57,1.53 -17.2,0 -20.43,-5.79 -20.43,-33.71 0,-34.73 5.96,-34.05 20.26,-34.05 17.54,0 34.56,2.9 34.74,2.9l0 -25.71c-14.64,-5.45 -20.43,-6.81 -44.95,-6.81 -33.88,0 -43.08,23.5 -43.08,63.34zm26.56 80.19l0 13.45 10.39 0c15.67,0 20.61,-7.49 20.61,-24.86l-19.92 0c0,6.47 0,6.81 -4.77,8.86l-6.3 2.55zm97.73 -164.64l4.77 11.41c5.11,-4.09 9.19,-5.96 15.66,-5.96 6.81,0 12.6,5.96 19.75,5.96 8.85,0 15.33,-6.64 19.07,-12.26l-4.42 -12.6c-3.75,3.92 -8.85,7.15 -15.67,6.81 -6.81,0 -10.56,-5.96 -18.05,-5.96 -9.54,0 -16.69,6.47 -21.11,12.6l0 0zm19.75 97.22l10.39 -33.37 9.02 33.37 -19.41 0zm-48.53 49.72l33.88 0 7.15 -21.62 33.54 0 7.32 21.62 33.88 0 -37.8 -124.46 -38.99 0 -38.99 124.46zm151.02 -61.29c0,-30.48 3.58,-34.39 18.56,-34.39 15.49,0 18.56,5.45 18.56,34.39 0,26.39 -3.92,32.52 -18.56,32.52 -16.69,0 -18.56,-6.47 -18.56,-32.52zm-33.03 0c0,56.7 20.94,62.15 51.59,62.15 30.65,0 51.59,-7.15 51.59,-62.15 0,-58.4 -22.13,-64.02 -51.59,-64.02 -28.6,0 -51.59,5.62 -51.59,64.02zm-910.23 159.3c0,8 1.36,36.09 33.71,36.09l15.32 0c7.49,0 9.02,2.56 9.02,7.49l0 2.72c0,5.11 -2.72,6.98 -10.04,6.98 -15.83,0 -37.29,-1.19 -44.1,-1.87l0 25.71c17.02,5.79 20.77,5.79 52.61,5.79 16.85,0 34.56,-6.47 34.56,-38.14l0 -5.62c0,-13.62 -5.96,-36.1 -31.84,-36.1l-16.01 0c-9.2,0 -10.22,-2.89 -10.22,-8.17l0 -1.87c0,-7.15 3.41,-7.49 12.6,-7.49 11.24,0 29.97,0.51 40.87,1.7l0 -25.71c-12.6,-4.6 -27.58,-7.15 -52.78,-5.62 -19.07,1.19 -33.71,11.41 -33.71,33.71l0 10.39zm101.99 54.14c0,26.05 22.3,28.26 33.37,27.93 0,0 36.44,-0.51 53.97,-2.9l0 -27.58 -43.75 0c-4.94,0 -10.56,0.17 -10.56,-8.86l0 -7.49 45.8 -1.53 0 -27.41 -45.8 -1.87 0 -7.49c0,-4.6 0,-9.53 8.85,-9.53l45.46 0 0 -27.75c-19.92,-2.73 -55.67,-2.73 -55.67,-2.73 -12.09,0 -31.67,3.23 -31.67,28.95l0 68.27zm95.01 -35.67c0,35.02 5.28,65.98 40.52,63.77 13.62,-0.85 16.34,-2.9 21.11,-9.2l9.36 8.34 23.32 0 0 -74.12c-4.08,-0.34 -8,-0.51 -11.58,-0.51 -11.24,0 -22.13,0.17 -29.8,4.26l0 20.41 8.34 0 0 12.74c0,0 -1.7,7.8 -12.26,7.8 -14.98,0 -16.01,-5.25 -16.01,-33.15 0,-27.7 2.72,-35.33 18.56,-35.33 21.62,0 40.52,3.72 41.55,3.72l0 -25.34c-22.99,-6.3 -24.69,-6.3 -51.76,-6.3 -33.88,0 -41.37,25.03 -41.37,62.91zm107.09 8.6c0,56.7 26.39,55.34 49.55,55.34 20.6,0 48.7,-0.34 48.7,-55.34l0 -70.15 -33.2 0 0 70.15c0,15.32 -0.34,25.71 -15.49,25.71 -16.18,0 -16.51,-9.7 -16.51,-25.71l0 -70.15 -33.03 0 0 70.15zm110.67 27.07c0,26.05 22.3,28.26 33.37,27.93 0,0 36.44,-0.51 53.97,-2.9l0 -27.58 -43.75 0c-4.94,0 -10.56,0.17 -10.56,-8.86l0 -7.49 45.8 -1.53 0 -27.41 -45.8 -1.87 0 -7.49c0,-4.6 0,-9.53 8.85,-9.53l45.46 0 0 -27.75c-19.92,-2.73 -55.68,-2.73 -55.68,-2.73 -12.09,0 -31.67,3.23 -31.67,28.95l0 68.27zm139.11 0c0,26.05 22.3,28.26 33.37,27.93 0,0 36.44,-0.51 53.97,-2.9l0 -27.58 -43.75 0c-4.94,0 -10.56,0.17 -10.56,-8.86l0 -7.49 45.8 -1.53 0 -27.41 -45.8 -1.87 0 -7.49c0,-4.6 0,-9.53 8.85,-9.53l45.46 0 0 -27.75c-19.92,-2.73 -55.68,-2.73 -55.68,-2.73 -12.09,0 -31.67,3.23 -31.67,28.95l0 68.27zm95.01 27.24l32.52 0 7.83 -67.85 10.9 67.85 37.8 0 10.38 -67.85 8.51 67.85 32.52 0 -13.45 -124.46 -45.97 0 -11.24 69.89 -10.56 -69.89 -45.97 0 -13.28 124.46zm-648.37 179.39l33.03 0 0 -46.14 45.8 -1.53 0 -27.41 -45.8 -1.87 0 -7.49c0,-4.6 0,-9.54 8.85,-9.54l45.46 0 0 -27.75c-19.92,-2.72 -55.67,-2.72 -55.67,-2.72 -14.47,-0.17 -31.67,6.3 -31.67,29.62l0 94.84zm130.42 -71.23l0 -25.14 18.22 0c7.49,0 9.19,4.4 9.19,11.89 0,8.82 -0.51,13.25 -9.19,13.25l-18.22 0zm-33.2 71.23l33.03 0 0 -46.4 10.22 2.36 16 44.04 37.63 0 -21.45 -47.08c8.68,-3.41 18.39,-7.84 18.39,-37.4 0,-30.96 -16.01,-39.98 -38.14,-39.98l-55.67 0 0 124.46zm104.71 -27.24c0,26.05 22.3,28.26 33.37,27.93 0,0 36.44,-0.51 53.97,-2.9l0 -27.58 -43.75 0c-4.94,0 -10.56,0.17 -10.56,-8.85l0 -7.49 45.8 -1.53 0 -27.41 -45.8 -1.87 0 -7.49c0,-4.6 0,-9.54 8.85,-9.54l45.46 0 0 -27.75c-19.92,-2.72 -55.68,-2.72 -55.68,-2.72 -12.09,0 -31.67,3.23 -31.67,28.94l0 68.27zm97.39 27.24l33.2 0 0 -61.89 35.75 61.89 33.03 0 0 -124.46 -33.03 0 0 63.59 -35.59 -63.59 -33.37 0 0 124.46zm111.01 -94.84l31.33 0 0 94.84 33.03 0 0 -94.84 32.35 0 0 -29.62 -96.71 0 0 29.62zm103.35 67.59c0,26.05 22.3,28.26 33.37,27.93 0,0 36.44,-0.51 53.97,-2.9l0 -27.58 -43.76 0c-4.94,0 -10.56,0.17 -10.56,-8.85l0 -7.49 45.8 -1.53 0 -27.41 -45.8 -1.87 0 -7.49c0,-4.6 0,-9.54 8.85,-9.54l45.46 0 0 -27.75c-19.92,-2.72 -55.68,-2.72 -55.68,-2.72 -12.09,0 -31.67,3.23 -31.67,28.94l0 68.27z"/>
 </g>
</svg>
