<svg width="635" height="333" viewBox="0 0 635 333" fill="none" xmlns="http://www.w3.org/2000/svg">
<path fill-rule="evenodd" clip-rule="evenodd" d="M495.794 142.609L515.536 231.743C520.293 253.136 532.661 268.823 560.49 268.823L546.457 333H580.707L597.595 308.756L631.607 142.609H584.751L568.339 231.743C564.533 231.506 559.538 229.842 558.111 222.473L543.602 142.609H495.794V142.609Z" fill="#178A04"/>
<path fill-rule="evenodd" clip-rule="evenodd" d="M372.11 206.31C372.11 254.087 384.716 270.25 413.02 270.25C427.054 270.25 434.903 265.02 444.179 257.177L451.077 268.824H490.56V82.235H444.417V147.838C435.854 143.322 423.724 140.707 413.02 140.707C378.77 140.707 372.11 159.485 372.11 206.31V206.31ZM418.253 203.933C418.253 177.074 422.059 173.747 428.719 173.747C434.665 173.747 441.8 174.697 444.179 177.312V227.703C441.8 231.743 436.092 232.932 428.719 232.932C421.821 232.932 418.253 229.842 418.253 203.933V203.933Z" fill="#178A04"/>
<path fill-rule="evenodd" clip-rule="evenodd" d="M256.851 234.675C256.851 247.946 265.889 268.823 295.858 270.012C313.221 270.725 320.357 260.742 322.497 255.75L331.536 268.586H368.64V183.928C368.64 148.551 348.661 140.232 315.362 140.232C291.815 140.232 277.544 141.895 261.132 149.74V176.559C261.132 176.559 301.804 173.984 307.751 173.984C317.264 173.984 322.497 173.746 322.497 186.304C322.735 186.542 322.497 187.968 322.497 187.968C322.497 188.206 298.237 187.968 298.237 187.968C265.175 187.968 256.851 207.182 256.851 224.93V234.675L256.851 234.675ZM302.994 227.069V225.643C302.994 221.879 302.518 215.699 310.129 214.986L322.497 213.798V228.02C322.497 228.02 322.735 235.864 312.983 235.864C308.464 235.864 302.994 236.814 302.994 227.069L302.994 227.069Z" fill="#178A04"/>
<path fill-rule="evenodd" clip-rule="evenodd" d="M0 82.2224L51.8416 265.175H110.445L125.222 205.442L140.012 258.092L142.002 265.175H200.605L207.215 238.2L180.826 155.459L171.554 205.693L164.24 181.221L146.009 120.223L133.357 82.2224H104.185L81.394 205.693L51.0904 82.2224H0Z" fill="#178A04"/>
<path fill-rule="evenodd" clip-rule="evenodd" d="M214.889 245.465V238.774L163.754 83.3311L214.904 83.2935L253.976 210.85L214.889 245.465Z" fill="#FF0000"/>
<path d="M54.5843 312.795V294.653H60.7816C64.413 294.653 66.6034 297.15 66.6034 303.833C66.6034 308.645 64.9134 312.795 60.7816 312.795H54.5843ZM52.2681 315.203H60.7815C66.8226 315.203 68.9193 309.047 68.9193 303.865C68.9193 299.178 67.8241 292.338 60.7815 292.338H52.2681V315.203ZM76.7448 315.203H79.0608V292.338H76.7448V315.203ZM89.0459 303.38V294.684H96.4955C97.8729 294.684 99.4379 295.122 99.4379 299.219C99.4379 303.38 97.9358 303.38 96.4955 303.38H89.0459ZM86.7297 315.203H89.0459V305.444L95.306 305.877L100.126 315.203H102.631L97.8099 305.783C98.6867 305.658 101.785 305.163 101.785 299.219C101.785 294.027 99.4693 292.338 96.4955 292.338H86.7297V315.203V315.203ZM109.83 311.387C109.83 314.922 112.021 315.453 114.087 315.329L123.665 314.796V313.013H114.087C113.179 313.013 112.178 313.045 112.146 311.387V305.131L122.412 304.819V302.973L112.146 302.661V296.405C112.146 295.56 112.146 294.653 113.774 294.653H123.665V292.838L113.774 292.338C111.677 292.244 109.83 293.339 109.83 296.404V311.387L109.83 311.387ZM130.395 294.653H137.092V315.203H139.409V294.653H146.295V292.338H130.395V294.653H130.395ZM154.715 303.943C154.715 294.59 157.125 294.497 161.288 294.497C165.545 294.497 167.798 294.59 167.798 303.943C167.798 311.731 166.171 313.045 161.288 313.045C156.342 313.045 154.715 311.982 154.715 303.943ZM152.399 303.943C152.399 314.359 155.654 315.359 161.288 315.359C166.922 315.359 170.114 314.046 170.114 303.943C170.114 293.214 166.703 292.182 161.288 292.182C156.029 292.182 152.399 293.214 152.399 303.943ZM179.629 303.38V294.684H187.079C188.456 294.684 190.021 295.122 190.021 299.219C190.021 303.38 188.519 303.38 187.079 303.38H179.629ZM177.313 315.203H179.629V305.444L185.889 305.877L190.709 315.203H193.214L188.393 305.783C189.27 305.658 192.369 305.163 192.369 299.219C192.369 294.027 190.052 292.338 187.079 292.338H177.313V315.203V315.203ZM211.369 303.661C211.369 310.292 212.339 315.454 218.818 315.391C221.635 315.391 223.701 314.359 224.891 313.702L225.391 315.234H227.144V303.161C226.393 303.098 225.673 303.067 225.015 303.067C222.48 303.067 220.822 303.504 219.569 303.849V305.413H224.828V311.668C224.828 311.668 221.197 313.139 218.818 313.107C214.969 313.045 213.685 310.668 213.685 303.723C213.685 297.405 214.561 294.402 218.692 294.402C221.792 294.402 226.456 294.778 226.644 294.778V292.933C224.452 292.526 220.321 292.088 218.692 292.088C212.465 292.088 211.369 297.405 211.369 303.661L211.369 303.661ZM235.282 311.387C235.282 314.922 237.473 315.453 239.538 315.329L249.117 314.796V313.013H239.538C238.631 313.013 237.629 313.045 237.598 311.387V305.131L247.864 304.819V302.973L237.598 302.661V296.405C237.598 295.56 237.598 294.653 239.226 294.653H249.117V292.838L239.226 292.338C237.129 292.244 235.282 293.339 235.282 296.404V311.387L235.282 311.387ZM258.632 303.38V294.684H266.081C267.459 294.684 269.024 295.122 269.024 299.219C269.024 303.38 267.522 303.38 266.081 303.38H258.632ZM256.315 315.203H258.632V305.444L264.892 305.877L269.712 315.203H272.217L267.396 305.783C268.273 305.658 271.371 305.163 271.371 299.219C271.371 294.027 269.055 292.338 266.081 292.338H256.315V315.203V315.203ZM284.079 306.539L287.867 295.873L291.561 306.539H284.079ZM278.32 315.203H281.168L283.234 308.854H292.374L294.346 315.203H297.1L289.057 292.338H286.74L278.32 315.203ZM304.299 311.267C304.299 314.796 306.49 315.203 308.556 315.203H318.134V312.889H308.556C307.649 312.889 306.615 312.92 306.615 311.267V292.338H304.299V311.267ZM337.384 315.203H339.7V292.338H337.384V315.203ZM347.995 315.203H350.311V305.131L360.577 304.819V302.973L350.311 302.661V296.404C350.311 295.56 350.311 294.653 351.939 294.653H361.83V292.838L351.939 292.338C349.842 292.244 347.995 293.339 347.995 296.404V315.203L347.995 315.203ZM368.559 315.203H370.875L372.127 296.524L378.2 315.203H380.578L386.463 296.524L387.871 315.203H390.187L388.435 292.338H385.273L379.358 311.361L373.254 292.338H370.061L368.559 315.203H368.559ZM402.989 306.539L406.777 295.873L410.47 306.539H402.989ZM397.23 315.203H400.078L402.144 308.854H411.283L413.255 315.203H416.01L407.966 292.338H405.649L397.23 315.203ZM434.164 303.724C434.164 310.449 436.011 315.422 441.802 315.422C443.429 315.422 447.248 315.14 449.439 314.734V312.889C449.439 312.889 445.088 313.108 441.802 313.108C437.638 313.108 436.48 308.917 436.48 303.786C436.48 296.185 437.889 294.402 441.802 294.402C444.681 294.402 449.408 294.716 449.439 294.716V292.87C447.248 292.463 443.429 292.088 441.802 292.088C435.573 292.088 434.164 296.405 434.164 303.724V303.724ZM457.859 303.943C457.859 294.59 460.269 294.497 464.432 294.497C468.689 294.497 470.942 294.59 470.942 303.943C470.942 311.731 469.315 313.045 464.432 313.045C459.486 313.045 457.859 311.982 457.859 303.943ZM455.543 303.943C455.543 314.359 458.798 315.359 464.432 315.359C470.066 315.359 473.258 314.046 473.258 303.943C473.258 293.214 469.847 292.182 464.432 292.182C459.174 292.182 455.543 293.214 455.543 303.943ZM483.399 312.795V294.653H489.597C493.228 294.653 495.419 297.15 495.419 303.833C495.419 308.645 493.729 312.795 489.597 312.795H483.399ZM481.083 315.203H489.597C495.638 315.203 497.735 309.047 497.735 303.865C497.735 299.178 496.639 292.338 489.597 292.338H481.083V315.203ZM512.258 290.305H514.449L518.581 286.145H515.638L512.258 290.305H512.258ZM506.781 303.943C506.781 294.59 509.19 294.497 513.354 294.497C517.61 294.497 519.864 294.59 519.864 303.943C519.864 311.731 518.237 313.045 513.354 313.045C508.408 313.045 506.781 311.982 506.781 303.943ZM504.465 303.943C504.465 314.359 507.72 315.359 513.354 315.359C518.988 315.359 522.18 314.046 522.18 303.943C522.18 293.214 518.768 292.182 513.354 292.182C508.095 292.182 504.465 293.214 504.465 303.943Z" fill="#178A04"/>
<path d="M8.54895 33.4918V53.2505H2.36572V0.915585H21.8327C33.4876 0.915585 39.3145 6.38348 39.3145 17.3176C39.3145 28.5581 33.0038 34.1779 20.3821 34.1779C17.8886 34.1779 13.9438 33.9491 8.54889 33.4919L8.54895 33.4918ZM21.3742 5.87467H8.54895V28.5328C13.1804 28.9394 16.845 29.1429 19.5427 29.1429C24.3775 29.1429 27.851 28.2272 29.9628 26.3962C32.0745 24.5651 33.1313 21.8447 33.1313 18.2332V16.6317C33.1313 9.46006 29.2126 5.87461 21.3742 5.87461L21.3742 5.87467ZM80.8058 32.3467V53.2505H74.6985V0.915585H94.2416C105.794 0.915585 111.571 6.3573 111.571 17.2416C111.571 21.4119 110.477 24.7432 108.288 27.2358C106.1 29.7276 103.148 31.4313 99.4326 32.3468L113.174 53.2506H106.151L93.4145 33.0337H92.9567C89.3812 33.0337 85.335 32.805 80.8058 32.3468V32.3467ZM93.7838 5.87467H80.8058V27.3885C84.9282 27.8458 88.694 28.0745 92.1044 28.0745C96.2774 28.0745 99.5218 27.2104 101.838 25.4805C104.153 23.7517 105.311 21.2083 105.311 17.8516V16.7074C105.311 9.48533 101.468 5.87461 93.7838 5.87461L93.7838 5.87467ZM182.072 52.6404C179.12 53.6066 175.303 54.0901 170.621 54.0901C165.938 54.0901 162.121 53.6066 159.169 52.6404C156.217 51.6743 153.877 50.0587 152.146 47.7956C150.416 45.5325 149.232 42.7859 148.596 39.5566C147.961 36.3265 147.642 32.1686 147.642 27.0829C147.642 22.048 147.961 17.9155 148.596 14.6862C149.232 11.4559 150.416 8.69716 152.146 6.40875C153.877 4.11941 156.217 2.47957 159.169 1.48814C162.121 0.495661 165.939 0 170.621 0C175.303 0 179.12 0.495603 182.072 1.48814C185.024 2.47957 187.364 4.11941 189.095 6.40875C190.826 8.69716 192.009 11.4559 192.645 14.6862C193.281 17.9155 193.599 22.048 193.599 27.0829C193.599 32.1686 193.281 36.3265 192.645 39.5566C192.009 42.7859 190.826 45.5325 189.095 47.7956C187.364 50.0587 185.024 51.6743 182.072 52.6404ZM170.239 5.41645C163.928 5.41645 159.678 6.94288 157.49 9.9942C155.302 13.0453 154.208 18.3604 154.208 25.9389V28.1514C154.208 35.9835 155.314 41.3616 157.528 44.2863C159.742 47.2108 164.106 48.6727 170.621 48.6727C177.084 48.6727 181.423 47.1978 183.637 44.2487C185.851 41.2988 186.958 35.9328 186.958 28.1514V25.9389C186.958 18.055 185.825 12.6639 183.56 9.76543C181.296 6.86605 176.855 5.41639 170.239 5.41639L170.239 5.41645ZM239.67 5.95058V24.4891H263.489V29.4482H239.67V53.2505H233.334V0.83956H266.847V5.95058H239.67H239.67ZM308.415 5.95058V23.9549H332.386V28.914H308.415V48.1386H335.898V53.2505H302.155V0.915527H335.745V5.95058H308.415H308.415ZM370.365 52.5636L371.052 47.2241C376.6 48.0374 381.359 48.444 385.328 48.444C387.16 48.444 388.751 48.3804 390.099 48.2538C391.448 48.1265 392.733 47.8725 393.954 47.4902C395.176 47.1087 396.168 46.6007 396.932 45.9646C397.696 45.3292 398.306 44.4895 398.764 43.4475C399.222 42.4045 399.451 41.1713 399.451 39.7469C399.451 37.0002 398.688 34.9153 397.161 33.4918C395.634 32.0674 393.064 30.8978 389.45 29.9824L382.122 28.1514C377.796 27.0325 374.526 25.4938 372.312 23.5351C370.098 21.5776 368.991 18.488 368.991 14.2664C368.991 9.02791 370.595 5.35282 373.801 3.2423C377.007 1.13195 381.791 0.07689 388.153 0.07689C392.53 0.07689 397.466 0.534192 402.963 1.44966L402.276 6.79008C396.728 6.02741 392.428 5.64602 389.375 5.64602C384.488 5.64602 380.977 6.26824 378.839 7.51463C376.702 8.77313 375.633 11.0493 375.633 14.3685C375.633 16.9745 376.358 18.8439 377.809 19.9882C379.259 21.1456 381.702 22.1492 385.163 23.0142L392.352 24.7308C396.932 25.8497 400.354 27.5787 402.62 29.9187C404.884 32.2577 406.016 35.5 406.016 39.6709C406.016 44.7566 404.362 48.4189 401.055 50.6565C397.746 52.8943 392.657 54.0132 385.786 54.0132C381.563 54.0132 376.422 53.5305 370.365 52.5636L370.365 52.5636ZM440.331 52.5636L441.018 47.2241C446.566 48.0374 451.325 48.444 455.294 48.444C457.126 48.444 458.717 48.3804 460.065 48.2538C461.414 48.1265 462.699 47.8725 463.92 47.4902C465.142 47.1087 466.134 46.6007 466.898 45.9646C467.662 45.3292 468.272 44.4895 468.73 43.4475C469.188 42.4045 469.417 41.1713 469.417 39.7469C469.417 37.0002 468.654 34.9153 467.127 33.4918C465.6 32.0674 463.03 30.8978 459.416 29.9824L452.088 28.1514C447.762 27.0325 444.492 25.4938 442.278 23.5351C440.064 21.5776 438.957 18.488 438.957 14.2664C438.957 9.02791 440.561 5.35282 443.767 3.2423C446.973 1.13195 451.757 0.07689 458.119 0.07689C462.496 0.07689 467.432 0.534192 472.929 1.44966L472.242 6.79008C466.694 6.02741 462.394 5.64602 459.341 5.64602C454.454 5.64602 450.943 6.26824 448.805 7.51463C446.668 8.77313 445.599 11.0493 445.599 14.3685C445.599 16.9745 446.324 18.8439 447.775 19.9882C449.225 21.1456 451.668 22.1492 455.129 23.0142L462.318 24.7308C466.898 25.8497 470.32 27.5787 472.586 29.9187C474.85 32.2577 475.982 35.5 475.982 39.6709C475.982 44.7566 474.328 48.4189 471.021 50.6565C467.713 52.8943 462.623 54.0132 455.752 54.0132C451.528 54.0132 446.388 53.5305 440.331 52.5636L440.331 52.5636ZM545.262 52.6404C542.31 53.6066 538.492 54.0901 533.81 54.0901C529.128 54.0901 525.311 53.6066 522.359 52.6404C519.407 51.6743 517.066 50.0587 515.336 47.7956C513.605 45.5325 512.422 42.7859 511.786 39.5566C511.15 36.3265 510.832 32.1686 510.832 27.0829C510.832 22.048 511.15 17.9155 511.786 14.6862C512.422 11.4559 513.605 8.69716 515.336 6.40875C517.066 4.11941 519.407 2.47957 522.359 1.48814C525.311 0.495661 529.128 0 533.81 0C538.492 0 542.31 0.495603 545.262 1.48814C548.214 2.47957 550.554 4.11941 552.284 6.40875C554.015 8.69716 555.199 11.4559 555.835 14.6862C556.471 17.9155 556.789 22.048 556.789 27.0829C556.789 32.1686 556.471 36.3265 555.835 39.5566C555.199 42.7859 554.015 45.5325 552.284 47.7956C550.554 50.0587 548.214 51.6743 545.262 52.6404ZM533.429 5.41645C527.118 5.41645 522.868 6.94288 520.68 9.9942C518.492 13.0453 517.397 18.3604 517.397 25.9389V28.1514C517.397 35.9835 518.504 41.3616 520.718 44.2863C522.932 47.2108 527.296 48.6727 533.81 48.6727C540.274 48.6727 544.613 47.1978 546.827 44.2487C549.041 41.2988 550.147 35.9328 550.147 28.1514V25.9389C550.147 18.055 549.015 12.6639 546.75 9.76543C544.485 6.86605 540.045 5.41639 533.429 5.41639V5.41645ZM602.631 32.3467V53.2505H596.524V0.915585H616.067C627.62 0.915585 633.397 6.3573 633.397 17.2416C633.397 21.4119 632.303 24.7432 630.114 27.2358C627.925 29.7276 624.973 31.4313 621.258 32.3468L635 53.2506H627.976L615.24 33.0337H614.782C611.207 33.0337 607.161 32.805 602.631 32.3468V32.3467ZM615.609 5.87467H602.631V27.3885C606.754 27.8458 610.52 28.0745 613.93 28.0745C618.103 28.0745 621.347 27.2104 623.664 25.4805C625.979 23.7517 627.137 21.2083 627.137 17.8516V16.7074C627.137 9.48533 623.294 5.87461 615.609 5.87461L615.609 5.87467Z" fill="#178A04"/>
</svg>
