<svg width="895" height="890" viewBox="0 0 895 890" fill="none" xmlns="http://www.w3.org/2000/svg">
<g filter="url(#filter0_d)">
<circle cx="458" cy="436" r="428" fill="#C4C4C4"/>
</g>
<g filter="url(#filter1_d)">
<mask id="mask0" mask-type="alpha" maskUnits="userSpaceOnUse" x="27" y="2" width="864" height="864">
<circle cx="459" cy="434" r="432" fill="#C4C4C4"/>
</mask>
<g mask="url(#mask0)">
<circle cx="459" cy="434" r="432" fill="white"/>
<path d="M321.405 61.9675L344.676 68.7037L338.544 89.8883L315.272 83.1521L321.405 61.9675ZM371.554 76.4837L394.826 83.22L388.694 104.405L365.422 97.6683L371.554 76.4837ZM421.706 91.0004L444.978 97.7367L438.846 118.921L415.574 112.185L421.706 91.0004ZM471.856 105.517L495.128 112.253L488.996 133.438L465.724 126.701L471.856 105.517ZM522.006 120.033L545.278 126.769L539.146 147.954L515.874 141.218L522.006 120.033ZM572.156 134.549L595.428 141.285L589.295 162.47L566.024 155.734L572.156 134.549ZM622.307 149.066L645.579 155.802L639.447 176.987L616.175 170.251L622.307 149.066ZM672.457 163.582L695.729 170.318L689.597 191.503L666.325 184.767L672.457 163.582ZM722.607 178.098L745.879 184.835L739.747 206.019L716.475 199.283L722.607 178.098ZM793.953 186.777C792.309 186.055 790.596 185.425 788.816 184.91L289.08 40.258C287.302 39.7432 285.517 39.3603 283.74 39.0923C265.713 36.3766 248.444 46.122 243.685 62.5643L39.7131 767.233C34.4847 785.296 46.3324 804.596 66.1748 810.339L565.91 954.991C585.754 960.735 606.077 950.748 611.306 932.685L815.277 228.016C820.037 211.574 810.643 194.111 793.953 186.777Z" fill="#3A8C2C"/>
<path d="M284.287 33.9678L284.186 34.3171C285.961 34.5861 287.746 34.969 289.526 35.4843L284.287 33.9678Z" fill="#FFFDF8"/>
<path d="M793.743 184.235L788.505 182.719C790.286 183.234 791.997 183.864 793.642 184.584L793.743 184.235Z" fill="#FFFDF8"/>
<path d="M791.643 182.599L576.695 925.189L66.483 777.504L281.431 34.9142C263.404 32.1984 246.135 41.9439 241.376 58.3876L37.4045 763.055C32.1757 781.119 44.0237 800.418 63.8662 806.161L563.601 950.813C583.444 956.557 603.768 946.571 608.997 928.507L812.968 223.839C817.728 207.396 808.335 189.932 791.643 182.599Z" fill="#68D156"/>
<path d="M319.18 57.8142L342.452 64.5505L336.32 85.7351L313.048 78.9988L319.18 57.8142ZM369.33 72.3305L392.602 79.0667L386.47 100.251L363.198 93.5151L369.33 72.3305ZM419.481 86.8472L442.753 93.5834L436.621 114.768L413.349 108.032L419.481 86.8472ZM469.631 101.363L492.903 108.1L486.771 129.284L463.499 122.548L469.631 101.363ZM519.781 115.88L543.053 122.616L536.921 143.801L513.649 137.064L519.781 115.88ZM569.931 130.396L593.203 137.132L587.071 158.317L563.799 151.581L569.931 130.396ZM620.082 144.913L643.354 151.649L637.222 172.834L613.95 166.097L620.082 144.913ZM670.232 159.429L693.504 166.165L687.372 187.35L664.1 180.614L670.232 159.429ZM720.382 173.945L743.654 180.681L737.522 201.866L714.25 195.13L720.382 173.945ZM576.78 925.214L791.728 182.624C790.084 181.902 788.371 181.272 786.591 180.757L286.856 36.1047C285.077 35.5899 283.293 35.2069 281.515 34.939L66.5669 777.529L576.78 925.214Z" fill="#F5FFEF"/>
<path d="M323.666 73.6736C322.312 73.2817 321.505 71.9669 321.861 70.7345L331.077 38.8951C331.434 37.6642 332.819 36.9824 334.173 37.3743C335.526 37.7661 336.333 39.0824 335.977 40.3133L326.761 72.1527C326.404 73.3851 325.019 74.0654 323.666 73.6736Z" fill="#474747"/>
<path d="M333.857 76.6801C332.504 76.2883 331.696 74.9735 332.053 73.7411L341.269 41.9017C341.626 40.6708 343.011 39.989 344.364 40.3808C345.718 40.7727 346.525 42.0889 346.169 43.3199L336.953 75.1593C336.596 76.3917 335.211 77.072 333.857 76.6801Z" fill="#474747"/>
<path d="M373.74 88.4464C372.386 88.0545 371.579 86.7398 371.936 85.5073L381.152 53.668C381.508 52.437 382.893 51.7552 384.247 52.1471C385.601 52.539 386.408 53.8552 386.052 55.0861L376.835 86.9255C376.479 88.1579 375.094 88.8383 373.74 88.4464Z" fill="#474747"/>
<path d="M383.932 91.4532C382.578 91.0613 381.771 89.7466 382.128 88.5142L391.344 56.6748C391.7 55.4439 393.085 54.762 394.439 55.1539C395.793 55.5458 396.6 56.862 396.243 58.093L387.027 89.9323C386.671 91.1648 385.286 91.8451 383.932 91.4532Z" fill="#474747"/>
<path d="M423.816 103.219C422.463 102.827 421.655 101.513 422.012 100.28L431.228 68.4408C431.585 67.2099 432.97 66.528 434.323 66.9199C435.677 67.3118 436.484 68.628 436.128 69.8589L426.912 101.698C426.555 102.931 425.17 103.611 423.816 103.219Z" fill="#474747"/>
<path d="M434.008 106.226C432.654 105.834 431.847 104.519 432.204 103.287L441.42 71.4475C441.776 70.2166 443.161 69.5347 444.515 69.9266C445.869 70.3185 446.675 71.6347 446.319 72.8657L437.103 104.705C436.746 105.937 435.362 106.618 434.008 106.226Z" fill="#474747"/>
<path d="M473.892 117.992C472.538 117.601 471.731 116.286 472.087 115.053L481.304 83.214C481.66 81.983 483.045 81.3012 484.399 81.6931C485.753 82.085 486.559 83.4012 486.203 84.6321L476.987 116.472C476.63 117.704 475.245 118.384 473.892 117.992Z" fill="#474747"/>
<path d="M484.082 120.999C482.729 120.607 481.922 119.292 482.278 118.06L491.494 86.2203C491.851 84.9894 493.236 84.3076 494.59 84.6994C495.943 85.0913 496.75 86.4076 496.394 87.6385L487.178 119.478C486.821 120.71 485.436 121.391 484.082 120.999Z" fill="#474747"/>
<path d="M523.966 132.765C522.614 132.373 521.805 131.058 522.162 129.826L531.378 97.9864C531.734 96.7555 533.121 96.0742 534.473 96.4656C535.825 96.857 536.633 98.1737 536.277 99.4046L527.061 131.244C526.704 132.476 525.318 133.156 523.966 132.765Z" fill="#474747"/>
<path d="M534.158 135.772C532.806 135.38 531.997 134.065 532.354 132.833L541.57 100.993C541.926 99.7623 543.313 99.081 544.665 99.4724C546.018 99.8638 546.826 101.18 546.469 102.411L537.253 134.251C536.897 135.483 535.51 136.163 534.158 135.772Z" fill="#474747"/>
<path d="M574.041 147.538C572.688 147.146 571.88 145.831 572.236 144.599L581.452 112.759C581.809 111.528 583.195 110.847 584.548 111.238C585.9 111.63 586.708 112.946 586.352 114.177L577.136 146.017C576.779 147.249 575.393 147.929 574.041 147.538Z" fill="#474747"/>
<path d="M584.232 150.544C582.88 150.153 582.071 148.838 582.428 147.605L591.644 115.766C592.001 114.535 593.387 113.854 594.739 114.245C596.092 114.636 596.9 115.953 596.544 117.184L587.328 149.023C586.971 150.256 585.585 150.936 584.232 150.544Z" fill="#474747"/>
<path d="M624.117 162.311C622.765 161.919 621.956 160.604 622.313 159.372L631.529 127.532C631.885 126.302 633.272 125.62 634.624 126.012C635.976 126.403 636.785 127.72 636.428 128.951L627.212 160.79C626.856 162.022 625.469 162.702 624.117 162.311Z" fill="#474747"/>
<path d="M634.309 165.317C632.956 164.926 632.148 163.611 632.504 162.378L641.721 130.539C642.077 129.308 643.463 128.627 644.816 129.018C646.168 129.41 646.976 130.726 646.62 131.957L637.404 163.797C637.047 165.029 635.661 165.709 634.309 165.317Z" fill="#474747"/>
<path d="M674.192 177.084C672.84 176.692 672.031 175.377 672.388 174.145L681.604 142.305C681.96 141.074 683.347 140.393 684.699 140.784C686.051 141.176 686.859 142.493 686.503 143.723L677.287 175.563C676.93 176.795 675.544 177.475 674.192 177.084Z" fill="#474747"/>
<path d="M684.383 180.09C683.031 179.699 682.222 178.384 682.579 177.151L691.795 145.312C692.152 144.081 693.538 143.399 694.89 143.791C696.243 144.182 697.051 145.499 696.695 146.73L687.478 178.569C687.122 179.802 685.736 180.482 684.383 180.09Z" fill="#474747"/>
<path d="M724.266 191.856C722.914 191.465 722.105 190.15 722.462 188.917L731.678 157.078C732.034 155.847 733.421 155.166 734.773 155.557C736.125 155.948 736.934 157.265 736.577 158.496L727.361 190.335C727.005 191.568 725.618 192.248 724.266 191.856Z" fill="#474747"/>
<path d="M734.458 194.863C733.106 194.472 732.297 193.157 732.654 191.924L741.87 160.085C742.226 158.854 743.613 158.173 744.965 158.564C746.317 158.955 747.126 160.272 746.769 161.503L737.553 193.342C737.196 194.575 735.81 195.255 734.458 194.863Z" fill="#474747"/>
<rect x="282.594" y="190.499" width="62.0312" height="56.1983" rx="3.5" transform="rotate(16.1435 282.594 190.499)" stroke="#1B7524" stroke-width="3"/>
<rect x="260.77" y="264.019" width="62.0312" height="56.1983" rx="3.5" transform="rotate(16.1435 260.77 264.019)" stroke="#1B7524" stroke-width="3"/>
<rect x="239.214" y="339.743" width="62.0312" height="56.1983" rx="3.5" transform="rotate(16.1435 239.214 339.743)" stroke="#1B7524" stroke-width="3"/>
<rect x="217.404" y="415.922" width="62.0312" height="56.1983" rx="3.5" transform="rotate(16.1435 217.404 415.922)" stroke="#1B7524" stroke-width="3"/>
<rect x="194.666" y="493.168" width="62.0312" height="56.1983" rx="3.5" transform="rotate(16.1435 194.666 493.168)" stroke="#1B7524" stroke-width="3"/>
<rect x="172.87" y="572.008" width="62.0312" height="56.1983" rx="3.5" transform="rotate(16.1435 172.87 572.008)" stroke="#1B7524" stroke-width="3"/>
<rect x="151.301" y="645.072" width="62.0312" height="56.1983" rx="3.5" transform="rotate(16.1435 151.301 645.072)" stroke="#1B7524" stroke-width="3"/>
<path d="M359.577 238.983L680.485 331.872" stroke="#68D156" stroke-width="5" stroke-linecap="round"/>
<path d="M337.308 315.916L658.216 408.806" stroke="#68D156" stroke-width="5" stroke-linecap="round"/>
<path d="M315.685 390.62L636.593 483.509" stroke="#68D156" stroke-width="5" stroke-linecap="round"/>
<path d="M293.416 467.554L614.324 560.443" stroke="#68D156" stroke-width="5" stroke-linecap="round"/>
<path d="M271.147 544.487L592.055 637.377" stroke="#68D156" stroke-width="5" stroke-linecap="round"/>
<path d="M248.233 623.651L569.141 716.54" stroke="#68D156" stroke-width="5" stroke-linecap="round"/>
<path d="M227.254 696.125L548.162 789.014" stroke="#68D156" stroke-width="5" stroke-linecap="round"/>
</g>
</g>
<defs>
<filter id="filter0_d" x="0" y="0" width="890" height="890" filterUnits="userSpaceOnUse" color-interpolation-filters="sRGB">
<feFlood flood-opacity="0" result="BackgroundImageFix"/>
<feColorMatrix in="SourceAlpha" type="matrix" values="0 0 0 0 0 0 0 0 0 0 0 0 0 0 0 0 0 0 127 0"/>
<feMorphology radius="6" operator="erode" in="SourceAlpha" result="effect1_dropShadow"/>
<feOffset dx="-13" dy="9"/>
<feGaussianBlur stdDeviation="11.5"/>
<feColorMatrix type="matrix" values="0 0 0 0 0 0 0 0 0 0 0 0 0 0 0 0 0 0 0.17 0"/>
<feBlend mode="normal" in2="BackgroundImageFix" result="effect1_dropShadow"/>
<feBlend mode="normal" in="SourceGraphic" in2="effect1_dropShadow" result="shape"/>
</filter>
<filter id="filter1_d" x="23" y="2" width="872" height="872" filterUnits="userSpaceOnUse" color-interpolation-filters="sRGB">
<feFlood flood-opacity="0" result="BackgroundImageFix"/>
<feColorMatrix in="SourceAlpha" type="matrix" values="0 0 0 0 0 0 0 0 0 0 0 0 0 0 0 0 0 0 127 0"/>
<feOffset dy="4"/>
<feGaussianBlur stdDeviation="2"/>
<feColorMatrix type="matrix" values="0 0 0 0 0 0 0 0 0 0 0 0 0 0 0 0 0 0 0.25 0"/>
<feBlend mode="normal" in2="BackgroundImageFix" result="effect1_dropShadow"/>
<feBlend mode="normal" in="SourceGraphic" in2="effect1_dropShadow" result="shape"/>
</filter>
</defs>
</svg>
