<svg width="181" height="181" viewBox="0 0 181 181" fill="none" xmlns="http://www.w3.org/2000/svg">
<mask id="mask0" mask-type="alpha" maskUnits="userSpaceOnUse" x="0" y="0" width="181" height="181">
<circle cx="90.5" cy="90.5" r="90.5" fill="white"/>
</mask>
<g mask="url(#mask0)">
<rect y="0.770264" width="186.391" height="180.23" fill="white"/>
<circle cx="90.115" cy="69.3191" r="33.1191" fill="#178A04"/>
<path d="M8.47241 180.783C36.4906 101.737 122.464 74.4935 171.758 180.783L8.47241 180.783Z" fill="#178A04"/>
<rect x="-12" y="128" width="198" height="56" fill="#178A04"/>
<path fill-rule="evenodd" clip-rule="evenodd" d="M109.178 153.419L110.897 161.182C111.311 163.045 112.388 164.411 114.812 164.411L113.59 170H116.573L118.043 167.889L121.005 153.419H116.925L115.495 161.182C115.164 161.161 114.729 161.016 114.605 160.375L113.341 153.419H109.178V153.419Z" fill="white"/>
<path fill-rule="evenodd" clip-rule="evenodd" d="M98.4062 158.967C98.4062 163.128 99.5041 164.535 101.969 164.535C103.191 164.535 103.875 164.08 104.683 163.397L105.283 164.411H108.722V148.162H104.703V153.875C103.958 153.482 102.901 153.254 101.969 153.254C98.9863 153.254 98.4062 154.889 98.4062 158.967V158.967ZM102.425 158.76C102.425 156.421 102.756 156.131 103.336 156.131C103.854 156.131 104.475 156.214 104.683 156.442V160.83C104.475 161.182 103.978 161.286 103.336 161.286C102.735 161.286 102.425 161.016 102.425 158.76V158.76Z" fill="white"/>
<path fill-rule="evenodd" clip-rule="evenodd" d="M88.3687 161.437C88.3687 162.593 89.1558 164.411 91.7658 164.515C93.2779 164.577 93.8993 163.707 94.0857 163.273L94.8728 164.391H98.1042V157.018C98.1042 153.937 96.3642 153.212 93.4643 153.212C91.4136 153.212 90.1708 153.357 88.7415 154.04V156.376C88.7415 156.376 92.2836 156.152 92.8014 156.152C93.63 156.152 94.0857 156.131 94.0857 157.225C94.1064 157.246 94.0857 157.37 94.0857 157.37C94.0857 157.39 91.9729 157.37 91.9729 157.37C89.0936 157.37 88.3687 159.043 88.3687 160.589V161.437L88.3687 161.437ZM92.3872 160.775V160.651C92.3872 160.323 92.3457 159.785 93.0086 159.723L94.0857 159.619V160.858C94.0857 160.858 94.1064 161.541 93.2572 161.541C92.8636 161.541 92.3872 161.624 92.3872 160.775L92.3872 160.775Z" fill="white"/>
<path fill-rule="evenodd" clip-rule="evenodd" d="M66 148.161L70.5148 164.094H75.6185L76.9053 158.892L78.1934 163.477L78.3666 164.094H83.4703L84.046 161.744L81.7478 154.539L80.9403 158.913L80.3033 156.782L78.7156 151.47L77.6138 148.161H75.0732L73.0884 158.913L70.4494 148.161H66Z" fill="white"/>
<path fill-rule="evenodd" clip-rule="evenodd" d="M84.7143 162.377V161.794L80.261 148.257L84.7156 148.254L88.1183 159.363L84.7143 162.377Z" fill="#FF0000"/>
<path d="M70.7537 168.241V166.661H71.2934C71.6097 166.661 71.8004 166.878 71.8004 167.46C71.8004 167.879 71.6533 168.241 71.2934 168.241H70.7537ZM70.552 168.451H71.2934C71.8195 168.451 72.0021 167.914 72.0021 167.463C72.0021 167.055 71.9068 166.459 71.2934 166.459H70.552V168.451ZM72.6836 168.451H72.8853V166.459H72.6836V168.451ZM73.7549 167.421V166.664H74.4037C74.5236 166.664 74.6599 166.702 74.6599 167.059C74.6599 167.421 74.5291 167.421 74.4037 167.421H73.7549ZM73.5532 168.451H73.7549V167.601L74.3001 167.638L74.7199 168.451H74.938L74.5182 167.63C74.5945 167.619 74.8644 167.576 74.8644 167.059C74.8644 166.606 74.6627 166.459 74.4037 166.459H73.5532V168.451V168.451ZM75.565 168.118C75.565 168.426 75.7558 168.472 75.9357 168.461L76.7698 168.415V168.26H75.9357C75.8566 168.26 75.7694 168.263 75.7667 168.118V167.573L76.6607 167.546V167.385L75.7667 167.358V166.813C75.7667 166.74 75.7667 166.661 75.9084 166.661H76.7698V166.503L75.9084 166.459C75.7258 166.451 75.565 166.546 75.565 166.813V168.118L75.565 168.118ZM77.3559 166.661H77.9392V168.451H78.1409V166.661H78.7406V166.459H77.3559V166.661H77.3559ZM79.4739 167.47C79.4739 166.655 79.6838 166.647 80.0463 166.647C80.417 166.647 80.6133 166.655 80.6133 167.47C80.6133 168.148 80.4716 168.263 80.0463 168.263C79.6156 168.263 79.4739 168.17 79.4739 167.47ZM79.2722 167.47C79.2722 168.377 79.5557 168.464 80.0463 168.464C80.537 168.464 80.815 168.35 80.815 167.47C80.815 166.536 80.5179 166.446 80.0463 166.446C79.5884 166.446 79.2722 166.536 79.2722 167.47ZM81.6436 167.421V166.664H82.2924C82.4124 166.664 82.5487 166.702 82.5487 167.059C82.5487 167.421 82.4178 167.421 82.2924 167.421H81.6436ZM81.4419 168.451H81.6436V167.601L82.1888 167.638L82.6086 168.451H82.8267L82.4069 167.63C82.4832 167.619 82.7531 167.576 82.7531 167.059C82.7531 166.606 82.5514 166.459 82.2924 166.459H81.4419V168.451V168.451ZM84.4078 167.445C84.4078 168.023 84.4923 168.472 85.0565 168.467C85.3018 168.467 85.4818 168.377 85.5854 168.32L85.629 168.453H85.7816V167.402C85.7162 167.396 85.6535 167.394 85.5962 167.394C85.3755 167.394 85.231 167.432 85.1219 167.462V167.598H85.5799V168.143C85.5799 168.143 85.2637 168.271 85.0565 168.268C84.7213 168.263 84.6095 168.056 84.6095 167.451C84.6095 166.901 84.6858 166.639 85.0456 166.639C85.3155 166.639 85.7217 166.672 85.738 166.672V166.511C85.5472 166.476 85.1874 166.437 85.0456 166.437C84.5032 166.437 84.4078 166.901 84.4078 167.445L84.4078 167.445ZM86.4903 168.118C86.4903 168.426 86.6811 168.472 86.861 168.461L87.6952 168.415V168.26H86.861C86.782 168.26 86.6948 168.263 86.692 168.118V167.573L87.5861 167.546V167.385L86.692 167.358V166.813C86.692 166.74 86.692 166.661 86.8338 166.661H87.6952V166.503L86.8338 166.459C86.6512 166.451 86.4903 166.546 86.4903 166.813V168.118L86.4903 168.118ZM88.5238 167.421V166.664H89.1726C89.2925 166.664 89.4288 166.702 89.4288 167.059C89.4288 167.421 89.298 167.421 89.1726 167.421H88.5238ZM88.3221 168.451H88.5238V167.601L89.069 167.638L89.4888 168.451H89.7069L89.2871 167.63C89.3634 167.619 89.6333 167.576 89.6333 167.059C89.6333 166.606 89.4316 166.459 89.1726 166.459H88.3221V168.451V168.451ZM90.74 167.696L91.0699 166.767L91.3915 167.696H90.74ZM90.2385 168.451H90.4865L90.6664 167.898H91.4623L91.6341 168.451H91.874L91.1735 166.459H90.9717L90.2385 168.451ZM92.5009 168.108C92.5009 168.415 92.6917 168.451 92.8716 168.451H93.7058V168.249H92.8716C92.7926 168.249 92.7026 168.252 92.7026 168.108V166.459H92.5009V168.108ZM95.3822 168.451H95.5839V166.459H95.3822V168.451ZM96.3063 168.451H96.508V167.573L97.4021 167.546V167.385L96.508 167.358V166.813C96.508 166.74 96.508 166.661 96.6498 166.661H97.5111V166.503L96.6498 166.459C96.4671 166.451 96.3063 166.546 96.3063 166.813V168.451L96.3063 168.451ZM98.0972 168.451H98.2989L98.4079 166.824L98.9368 168.451H99.1439L99.6564 166.824L99.7791 168.451H99.9808L99.8281 166.459H99.5528L99.0376 168.116L98.5061 166.459H98.228L98.0972 168.451H98.0972ZM101.096 167.696L101.425 166.767L101.747 167.696H101.096ZM100.594 168.451H100.842L101.022 167.898H101.818L101.99 168.451H102.23L101.529 166.459H101.327L100.594 168.451ZM103.811 167.451C103.811 168.037 103.971 168.47 104.476 168.47C104.617 168.47 104.95 168.445 105.141 168.41V168.249C105.141 168.249 104.762 168.268 104.476 168.268C104.113 168.268 104.012 167.903 104.012 167.456C104.012 166.794 104.135 166.639 104.476 166.639C104.727 166.639 105.138 166.666 105.141 166.666V166.506C104.95 166.47 104.617 166.437 104.476 166.437C103.933 166.437 103.811 166.813 103.811 167.451V167.451ZM105.874 167.47C105.874 166.655 106.084 166.647 106.447 166.647C106.817 166.647 107.014 166.655 107.014 167.47C107.014 168.148 106.872 168.263 106.447 168.263C106.016 168.263 105.874 168.17 105.874 167.47ZM105.672 167.47C105.672 168.377 105.956 168.464 106.447 168.464C106.937 168.464 107.215 168.35 107.215 167.47C107.215 166.536 106.918 166.446 106.447 166.446C105.989 166.446 105.672 166.536 105.672 167.47ZM108.098 168.241V166.661H108.638C108.954 166.661 109.145 166.878 109.145 167.46C109.145 167.879 108.998 168.241 108.638 168.241H108.098ZM107.897 168.451H108.638C109.164 168.451 109.347 167.914 109.347 167.463C109.347 167.055 109.251 166.459 108.638 166.459H107.897V168.451ZM110.612 166.282H110.802L111.162 165.92H110.906L110.612 166.282H110.612ZM110.135 167.47C110.135 166.655 110.344 166.647 110.707 166.647C111.078 166.647 111.274 166.655 111.274 167.47C111.274 168.148 111.132 168.263 110.707 168.263C110.276 168.263 110.135 168.17 110.135 167.47ZM109.933 167.47C109.933 168.377 110.216 168.464 110.707 168.464C111.198 168.464 111.476 168.35 111.476 167.47C111.476 166.536 111.179 166.446 110.707 166.446C110.249 166.446 109.933 166.536 109.933 167.47Z" fill="white"/>
<path d="M66.7445 143.917V145.637H66.2061V141.08H67.9014C68.9164 141.08 69.4239 141.556 69.4239 142.508C69.4239 143.487 68.8743 143.976 67.7751 143.976C67.5579 143.976 67.2144 143.957 66.7445 143.917L66.7445 143.917ZM67.8615 141.512H66.7445V143.485C67.1479 143.52 67.467 143.538 67.702 143.538C68.123 143.538 68.4255 143.458 68.6094 143.299C68.7933 143.139 68.8854 142.902 68.8854 142.588V142.448C68.8854 141.824 68.5441 141.512 67.8615 141.512L67.8615 141.512ZM73.0373 143.817V145.637H72.5054V141.08H74.2073C75.2135 141.08 75.7166 141.554 75.7166 142.502C75.7166 142.865 75.6213 143.155 75.4307 143.372C75.2401 143.589 74.983 143.737 74.6594 143.817L75.8561 145.637H75.2445L74.1353 143.877H74.0955C73.7841 143.877 73.4317 143.857 73.0373 143.817V143.817ZM74.1675 141.512H73.0373V143.385C73.3963 143.425 73.7242 143.445 74.0212 143.445C74.3846 143.445 74.6672 143.37 74.8689 143.219C75.0705 143.068 75.1714 142.847 75.1714 142.555V142.455C75.1714 141.826 74.8367 141.512 74.1675 141.512L74.1675 141.512ZM81.8563 145.584C81.5992 145.668 81.2668 145.711 80.8591 145.711C80.4513 145.711 80.1188 145.668 79.8618 145.584C79.6047 145.5 79.4009 145.36 79.2502 145.162C79.0994 144.965 78.9964 144.726 78.941 144.445C78.8856 144.164 78.8579 143.802 78.8579 143.359C78.8579 142.92 78.8856 142.56 78.941 142.279C78.9964 141.998 79.0994 141.757 79.2502 141.558C79.4009 141.359 79.6047 141.216 79.8618 141.13C80.1188 141.043 80.4513 141 80.8591 141C81.2668 141 81.5992 141.043 81.8563 141.13C82.1134 141.216 82.3172 141.359 82.4679 141.558C82.6187 141.757 82.7217 141.998 82.7771 142.279C82.8325 142.56 82.8602 142.92 82.8602 143.359C82.8602 143.802 82.8325 144.164 82.7771 144.445C82.7217 144.726 82.6187 144.965 82.4679 145.162C82.3172 145.36 82.1134 145.5 81.8563 145.584ZM80.8258 141.472C80.2762 141.472 79.9061 141.605 79.7155 141.87C79.525 142.136 79.4297 142.599 79.4297 143.259V143.452C79.4297 144.134 79.526 144.602 79.7189 144.857C79.9117 145.111 80.2917 145.239 80.8591 145.239C81.422 145.239 81.7998 145.11 81.9926 144.854C82.1854 144.597 82.2818 144.129 82.2818 143.452V143.259C82.2818 142.572 82.1832 142.103 81.9859 141.85C81.7887 141.598 81.402 141.472 80.8258 141.472L80.8258 141.472ZM86.8725 141.518V143.133H88.9467V143.565H86.8725V145.637H86.3207V141.073H89.2393V141.518H86.8725H86.8725ZM92.8593 141.518V143.086H94.9469V143.518H92.8593V145.192H95.2528V145.637H92.3142V141.08H95.2395V141.518H92.8593H92.8593ZM98.2544 145.578L98.3143 145.113C98.7974 145.183 99.2118 145.219 99.5575 145.219C99.7171 145.219 99.8556 145.213 99.973 145.202C100.09 145.191 100.202 145.169 100.309 145.136C100.415 145.103 100.502 145.058 100.568 145.003C100.635 144.948 100.688 144.875 100.728 144.784C100.768 144.693 100.787 144.586 100.787 144.461C100.787 144.222 100.721 144.041 100.588 143.917C100.455 143.793 100.231 143.691 99.9165 143.611L99.2783 143.452C98.9015 143.354 98.6168 143.22 98.424 143.05C98.2311 142.879 98.1348 142.61 98.1348 142.242C98.1348 141.786 98.2744 141.466 98.5536 141.282C98.8329 141.099 99.2495 141.007 99.8035 141.007C100.185 141.007 100.615 141.047 101.093 141.126L101.033 141.591C100.55 141.525 100.176 141.492 99.9099 141.492C99.4844 141.492 99.1786 141.546 98.9924 141.654C98.8063 141.764 98.7132 141.962 98.7132 142.251C98.7132 142.478 98.7763 142.641 98.9027 142.741C99.029 142.842 99.2417 142.929 99.5432 143.004L100.169 143.154C100.568 143.251 100.866 143.402 101.063 143.606C101.261 143.809 101.359 144.092 101.359 144.455C101.359 144.898 101.215 145.217 100.927 145.412C100.639 145.606 100.196 145.704 99.5974 145.704C99.2296 145.704 98.7819 145.662 98.2544 145.578L98.2544 145.578ZM104.348 145.578L104.407 145.113C104.891 145.183 105.305 145.219 105.651 145.219C105.81 145.219 105.949 145.213 106.066 145.202C106.184 145.191 106.296 145.169 106.402 145.136C106.508 145.103 106.595 145.058 106.661 145.003C106.728 144.948 106.781 144.875 106.821 144.784C106.861 144.693 106.881 144.586 106.881 144.461C106.881 144.222 106.814 144.041 106.681 143.917C106.548 143.793 106.324 143.691 106.01 143.611L105.372 143.452C104.995 143.354 104.71 143.22 104.517 143.05C104.324 142.879 104.228 142.61 104.228 142.242C104.228 141.786 104.368 141.466 104.647 141.282C104.926 141.099 105.343 141.007 105.897 141.007C106.278 141.007 106.708 141.047 107.187 141.126L107.127 141.591C106.644 141.525 106.269 141.492 106.003 141.492C105.578 141.492 105.272 141.546 105.086 141.654C104.9 141.764 104.806 141.962 104.806 142.251C104.806 142.478 104.87 142.641 104.996 142.741C105.122 142.842 105.335 142.929 105.636 143.004L106.262 143.154C106.661 143.251 106.959 143.402 107.157 143.606C107.354 143.809 107.452 144.092 107.452 144.455C107.452 144.898 107.308 145.217 107.02 145.412C106.732 145.606 106.289 145.704 105.691 145.704C105.323 145.704 104.875 145.662 104.348 145.578L104.348 145.578ZM113.486 145.584C113.229 145.668 112.896 145.711 112.489 145.711C112.081 145.711 111.748 145.668 111.491 145.584C111.234 145.5 111.03 145.36 110.88 145.162C110.729 144.965 110.626 144.726 110.571 144.445C110.515 144.164 110.487 143.802 110.487 143.359C110.487 142.92 110.515 142.56 110.571 142.279C110.626 141.998 110.729 141.757 110.88 141.558C111.03 141.359 111.234 141.216 111.491 141.13C111.748 141.043 112.081 141 112.489 141C112.896 141 113.229 141.043 113.486 141.13C113.743 141.216 113.947 141.359 114.097 141.558C114.248 141.757 114.351 141.998 114.407 142.279C114.462 142.56 114.49 142.92 114.49 143.359C114.49 143.802 114.462 144.164 114.407 144.445C114.351 144.726 114.248 144.965 114.097 145.162C113.947 145.36 113.743 145.5 113.486 145.584ZM112.455 141.472C111.906 141.472 111.536 141.605 111.345 141.87C111.154 142.136 111.059 142.599 111.059 143.259V143.452C111.059 144.134 111.156 144.602 111.348 144.857C111.541 145.111 111.921 145.239 112.489 145.239C113.051 145.239 113.429 145.11 113.622 144.854C113.815 144.597 113.911 144.129 113.911 143.452V143.259C113.911 142.572 113.813 142.103 113.615 141.85C113.418 141.598 113.032 141.472 112.455 141.472L112.455 141.472ZM118.482 143.817V145.637H117.95V141.08H119.652C120.658 141.08 121.161 141.554 121.161 142.502C121.161 142.865 121.066 143.155 120.875 143.372C120.685 143.589 120.428 143.737 120.104 143.817L121.301 145.637H120.689L119.58 143.877H119.54C119.229 143.877 118.876 143.857 118.482 143.817V143.817ZM119.612 141.512H118.482V143.385C118.841 143.425 119.169 143.445 119.466 143.445C119.829 143.445 120.112 143.37 120.314 143.219C120.515 143.068 120.616 142.847 120.616 142.555V142.455C120.616 141.826 120.282 141.512 119.612 141.512L119.612 141.512Z" fill="white"/>
<path d="M67.46 137.416C67.0579 137.3 66.765 137.158 66.5811 136.991C66.3988 136.821 66.3076 136.613 66.3076 136.366C66.3076 136.086 66.4191 135.855 66.6421 135.672C66.8667 135.488 67.158 135.396 67.5161 135.396C67.7603 135.396 67.9775 135.444 68.168 135.538C68.36 135.632 68.5081 135.763 68.6123 135.929C68.7181 136.095 68.771 136.276 68.771 136.473H68.2998C68.2998 136.258 68.2314 136.09 68.0947 135.968C67.958 135.844 67.7651 135.782 67.5161 135.782C67.285 135.782 67.1043 135.833 66.9741 135.936C66.8455 136.037 66.7812 136.178 66.7812 136.358C66.7812 136.503 66.8423 136.626 66.9644 136.727C67.0881 136.826 67.2972 136.917 67.5918 137C67.888 137.083 68.1191 137.175 68.2852 137.276C68.4528 137.376 68.5765 137.492 68.6562 137.625C68.7376 137.759 68.7783 137.916 68.7783 138.097C68.7783 138.385 68.666 138.616 68.4414 138.79C68.2168 138.963 67.9165 139.049 67.5405 139.049C67.2964 139.049 67.0685 139.002 66.8569 138.91C66.6453 138.815 66.4818 138.687 66.3662 138.524C66.2523 138.361 66.1953 138.176 66.1953 137.97H66.6665C66.6665 138.185 66.7454 138.355 66.9033 138.48C67.0628 138.604 67.2752 138.666 67.5405 138.666C67.7879 138.666 67.9775 138.615 68.1094 138.514C68.2412 138.413 68.3071 138.276 68.3071 138.102C68.3071 137.927 68.2461 137.793 68.124 137.699C68.002 137.603 67.7806 137.508 67.46 137.416ZM72.8657 137.337C72.8657 137.686 72.8071 137.99 72.6899 138.25C72.5728 138.509 72.4067 138.707 72.1919 138.844C71.9771 138.98 71.7264 139.049 71.4399 139.049C71.16 139.049 70.9118 138.98 70.6953 138.844C70.4788 138.705 70.3104 138.509 70.1899 138.255C70.0711 138 70.0101 137.704 70.0068 137.369V137.113C70.0068 136.771 70.0662 136.469 70.1851 136.207C70.3039 135.945 70.4715 135.745 70.688 135.606C70.9061 135.466 71.1551 135.396 71.4351 135.396C71.7199 135.396 71.9705 135.466 72.187 135.604C72.4051 135.741 72.5728 135.94 72.6899 136.202C72.8071 136.463 72.8657 136.766 72.8657 137.113V137.337ZM72.3994 137.108C72.3994 136.686 72.3148 136.363 72.1455 136.139C71.9762 135.912 71.7394 135.799 71.4351 135.799C71.1388 135.799 70.9053 135.912 70.7344 136.139C70.5651 136.363 70.478 136.676 70.4731 137.076V137.337C70.4731 137.746 70.5586 138.067 70.7295 138.302C70.902 138.535 71.1388 138.651 71.4399 138.651C71.7427 138.651 71.9771 138.541 72.1431 138.321C72.3091 138.1 72.3945 137.783 72.3994 137.372V137.108ZM76.8213 135.445V137.862C76.8197 138.198 76.7139 138.472 76.5039 138.685C76.2956 138.898 76.0124 139.018 75.6543 139.044L75.5298 139.049C75.1408 139.049 74.8307 138.944 74.5996 138.734C74.3685 138.524 74.2513 138.235 74.248 137.867V135.445H74.7119V137.853C74.7119 138.11 74.7827 138.31 74.9243 138.453C75.0659 138.595 75.2677 138.666 75.5298 138.666C75.7951 138.666 75.9977 138.595 76.1377 138.453C76.2793 138.312 76.3501 138.112 76.3501 137.855V135.445H76.8213Z" fill="white"/>
</g>
</svg>
